<svg width="21" height="24" viewBox="0 0 21 24" fill="none" xmlns="http://www.w3.org/2000/svg">
<path d="M10.4565 23.5C4.64691 22.2089 0.00195312 16.7275 0.00195312 10.9545V4.68182L10.4565 0.5L20.911 4.68182V10.9545C20.911 16.7296 16.2661 22.2089 10.4565 23.5ZM2.09286 5.72727V10.9545C2.15261 13.3718 3.00279 15.7028 4.51328 17.5909C6.02377 19.4791 8.11134 20.8202 10.4565 21.4091C12.8017 20.8202 14.8892 19.4791 16.3997 17.5909C17.9102 15.7028 18.7604 13.3718 18.8201 10.9545V5.72727L10.4565 2.59091L2.09286 5.72727Z" fill="#1877F2"/>
<path d="M10.4574 10.9544C11.9009 10.9544 13.071 9.78422 13.071 8.34075C13.071 6.89728 11.9009 5.72712 10.4574 5.72712C9.01391 5.72712 7.84375 6.89728 7.84375 8.34075C7.84375 9.78422 9.01391 10.9544 10.4574 10.9544Z" fill="#1877F2"/>
<path d="M5.22852 15.1362C5.74381 16.0752 6.49936 16.8605 7.41784 17.4116C8.33632 17.9627 9.38474 18.2598 10.4558 18.2726C11.5268 18.2598 12.5753 17.9627 13.4937 17.4116C14.4122 16.8605 15.1678 16.0752 15.6831 15.1362C15.6569 13.154 12.1892 11.9998 10.4558 11.9998C8.71302 11.9998 5.25465 13.154 5.22852 15.1362Z" fill="#1877F2"/>
</svg>
