<svg width="27" height="26" viewBox="0 0 27 26" fill="none" xmlns="http://www.w3.org/2000/svg">
<path d="M9.05849 15.7731L7.82444 14.539L3.99888 15.7607H3.87547C3.81533 15.7645 3.75509 15.7554 3.69871 15.7341C3.64234 15.7128 3.59112 15.6798 3.54845 15.6373L2.65376 14.755C2.58149 14.6862 2.53524 14.5946 2.52287 14.4956C2.5105 14.3966 2.53276 14.2964 2.58589 14.212L3.62866 12.4164C4.27455 11.3111 5.17562 10.3764 6.25657 9.69047C7.33752 9.00454 8.56695 8.58731 9.84211 8.47364L11.3785 8.3379M11.3785 8.3379C12.2711 7.27661 13.0938 6.36753 13.8466 5.61064C15.2749 4.09772 16.9798 2.87244 18.8692 2.00104C20.795 1.2812 22.8426 0.943771 24.8975 1.00763C25.0218 1.00874 25.141 1.0573 25.2307 1.14338C25.2735 1.18262 25.3076 1.2303 25.3309 1.2834C25.3543 1.3365 25.3664 1.39388 25.3665 1.45189C25.4086 3.51296 25.0416 5.56192 24.2867 7.48023C23.4377 9.37515 22.2262 11.0856 20.7203 12.5152C19.9613 13.2803 19.0481 14.1009 17.993 14.9833L17.8573 16.5135C17.7465 17.788 17.3326 19.0176 16.6499 20.0995C15.9672 21.1815 15.0357 22.0845 13.933 22.7331L12.1498 23.7759C12.0794 23.813 12.001 23.832 11.9215 23.8314C11.8034 23.829 11.6899 23.7853 11.6006 23.708L10.7059 22.8071C10.6482 22.7519 10.6071 22.6815 10.5875 22.6041C10.5678 22.5266 10.5704 22.4451 10.5949 22.3691L11.7857 18.5003M11.3785 8.3379L7.85529 14.5699M11.7857 18.5003L10.5887 17.3033M11.7857 18.5003L18.0177 14.9833M22.2135 6.6781C22.2151 6.00822 21.951 5.36503 21.4791 4.88962C21.0071 4.41421 20.3659 4.14539 19.696 4.14212C19.3529 4.12518 19.0099 4.17814 18.6878 4.29778C18.3658 4.41743 18.0714 4.60126 17.8225 4.83813C17.5737 5.07499 17.3755 5.35995 17.2402 5.67572C17.1048 5.99148 17.035 6.33145 17.035 6.67501C17.035 7.01857 17.1048 7.35855 17.2402 7.67431C17.3755 7.99007 17.5737 8.27503 17.8225 8.5119C18.0714 8.74877 18.3658 8.9326 18.6878 9.05224C19.0099 9.17189 19.3529 9.22484 19.696 9.2079C20.3612 9.20887 20.9998 8.94721 21.473 8.47981C21.7111 8.24491 21.899 7.96408 22.0252 7.65436C22.1514 7.34464 22.2134 7.01249 22.2073 6.6781H22.2135Z" stroke="#2C50ED" stroke-width="1.5" stroke-linecap="round" stroke-linejoin="round"/>
<path d="M1 25.0683C3.4681 24.6117 7.84898 20.5023 8.36112 17.7072C5.54748 18.244 1.43809 22.6002 1 25.0683Z" stroke="#2C50ED" stroke-linecap="round" stroke-linejoin="round"/>
</svg>
