<svg width="33" height="33" viewBox="0 0 33 33" fill="none" xmlns="http://www.w3.org/2000/svg">
<path d="M9.6105 20.4532L7.9855 18.8282L2.948 20.4369H2.7855C2.70631 20.4419 2.62698 20.4299 2.55275 20.4019C2.47851 20.3739 2.41107 20.3304 2.35488 20.2744L1.17675 19.1126C1.08159 19.022 1.02068 18.9013 1.00439 18.771C0.988101 18.6407 1.01742 18.5087 1.08738 18.3975L2.4605 16.0332C3.311 14.5777 4.49754 13.3468 5.92093 12.4436C7.34433 11.5404 8.96325 10.991 10.6424 10.8413L12.6655 10.6625M12.6655 10.6625C13.8409 9.26505 14.9243 8.06797 15.9155 7.0713C17.7963 5.07908 20.0413 3.46563 22.5293 2.31817C25.0651 1.37029 27.7615 0.925957 30.4674 1.01005C30.6311 1.0115 30.788 1.07545 30.9061 1.1888C30.9624 1.24048 31.0073 1.30326 31.0381 1.37319C31.0689 1.44311 31.0848 1.51866 31.0849 1.59505C31.1403 4.30907 30.6571 7.00715 29.663 9.53317C28.5451 12.0284 26.9497 14.2807 24.9668 16.1632C23.9674 17.1707 22.7649 18.2513 21.3755 19.4132L21.1968 21.4282C21.0509 23.1065 20.5058 24.7255 19.6069 26.1503C18.708 27.575 17.4813 28.764 16.0293 29.6182L13.6811 30.9913C13.5885 31.0401 13.4852 31.0653 13.3805 31.0644C13.225 31.0612 13.0756 31.0037 12.958 30.9019L11.7799 29.7157C11.7038 29.6429 11.6498 29.5503 11.6239 29.4482C11.598 29.3462 11.6014 29.239 11.6336 29.1388L13.2018 24.0444M12.6655 10.6625L8.02613 18.8688M13.2018 24.0444L11.6255 22.4682M13.2018 24.0444L21.408 19.4132M26.933 8.47692C26.9352 7.59482 26.5874 6.74788 25.9659 6.12185C25.3445 5.49583 24.5001 5.14185 23.618 5.13755C23.1662 5.11524 22.7145 5.18498 22.2904 5.34252C21.8663 5.50007 21.4787 5.74214 21.151 6.05405C20.8233 6.36595 20.5624 6.74119 20.3841 7.15699C20.2059 7.57278 20.114 8.02046 20.114 8.47286C20.114 8.92526 20.2059 9.37294 20.3841 9.78874C20.5624 10.2045 20.8233 10.5798 21.151 10.8917C21.4787 11.2036 21.8663 11.4457 22.2904 11.6032C22.7145 11.7607 23.1662 11.8305 23.618 11.8082C24.4939 11.8095 25.3348 11.4649 25.958 10.8494C26.2715 10.5401 26.5189 10.1703 26.6851 9.76247C26.8513 9.35463 26.9329 8.91726 26.9249 8.47692H26.933Z" stroke="#2C50ED" stroke-width="2" stroke-linecap="round" stroke-linejoin="round"/>
</svg>
