<svg width="20" height="20" viewBox="0 0 20 20" fill="none" xmlns="http://www.w3.org/2000/svg">
<path d="M6.05072 12.72L5.05072 11.72L1.95072 12.71H1.85072C1.80199 12.7131 1.75317 12.7057 1.70749 12.6885C1.66181 12.6712 1.6203 12.6445 1.58572 12.61L0.860724 11.895C0.802159 11.8393 0.764682 11.7651 0.754657 11.6848C0.744631 11.6046 0.762675 11.5234 0.805725 11.455L1.65072 10C2.17411 9.10432 2.90428 8.3469 3.78022 7.79107C4.65616 7.23524 5.65241 6.89714 6.68572 6.80502L7.93072 6.69502M7.93072 6.69502C8.65406 5.83502 9.32073 5.09836 9.93073 4.48502C11.0881 3.25905 12.4697 2.26615 14.0007 1.56002C15.5613 0.976711 17.2205 0.703275 18.8857 0.755024C18.9865 0.75592 19.083 0.79527 19.1557 0.865024C19.1903 0.896826 19.218 0.935463 19.2369 0.978493C19.2559 1.02152 19.2657 1.06801 19.2657 1.11502C19.2999 2.78519 19.0025 4.44555 18.3907 6.00002C17.7028 7.53555 16.721 8.9216 15.5007 10.08C14.8857 10.7 14.1457 11.365 13.2907 12.08L13.1807 13.32C13.091 14.3528 12.7555 15.3492 12.2023 16.2259C11.6492 17.1027 10.8943 17.8344 10.0007 18.36L8.55572 19.205C8.49872 19.2351 8.43516 19.2505 8.37072 19.25C8.27504 19.2481 8.18306 19.2127 8.11072 19.15L7.38572 18.42C7.33891 18.3753 7.30565 18.3182 7.28973 18.2555C7.27381 18.1927 7.27589 18.1267 7.29572 18.065L8.26072 14.93M7.93072 6.69502L5.07572 11.745M8.26072 14.93L7.29072 13.96M8.26072 14.93L13.3107 12.08M16.7107 5.35002C16.7121 4.80719 16.498 4.28599 16.1156 3.90075C15.7332 3.51551 15.2136 3.29767 14.6707 3.29502C14.3927 3.2813 14.1147 3.32421 13.8537 3.42116C13.5928 3.51811 13.3542 3.66708 13.1526 3.85902C12.9509 4.05097 12.7904 4.28188 12.6807 4.53776C12.571 4.79363 12.5144 5.06913 12.5144 5.34752C12.5144 5.62592 12.571 5.90142 12.6807 6.15729C12.7904 6.41317 12.9509 6.64408 13.1526 6.83602C13.3542 7.02797 13.5928 7.17694 13.8537 7.27389C14.1147 7.37084 14.3927 7.41375 14.6707 7.40002C15.2097 7.40081 15.7272 7.18878 16.1107 6.81002C16.3037 6.61968 16.4559 6.39211 16.5582 6.14113C16.6604 5.89015 16.7106 5.621 16.7057 5.35002H16.7107Z" stroke="#2C50ED" stroke-linecap="round" stroke-linejoin="round"/>
</svg>
