<svg width="24" height="24" viewBox="0 0 24 24" fill="none" xmlns="http://www.w3.org/2000/svg">
<path fill-rule="evenodd" clip-rule="evenodd" d="M22.1666 12C22.1666 17.6459 17.5903 22.2222 11.9444 22.2222C7.45303 22.2222 3.63759 19.3249 2.26526 15.2979L1.40276 15.8333C1.32082 15.8856 1.22644 15.9152 1.12931 15.9189C2.73228 20.3407 6.9694 23.5 11.9444 23.5C18.2956 23.5 23.4444 18.3512 23.4444 12C23.4484 9.00136 22.277 6.12057 20.1816 3.97556C20.1669 4.11739 20.0871 4.23942 19.9305 4.33333L19.1926 4.79142C21.1005 6.70493 22.1703 9.29787 22.1666 12ZM0.945312 8.63306C1.1619 8.30594 1.41937 8.03633 1.7222 7.84722L2.98401 7.07608C4.67834 3.99919 7.91176 1.88831 11.6473 1.78225L13.2222 0.819444C13.3587 0.730696 13.5093 0.665877 13.6675 0.627778C13.1053 0.544722 12.5303 0.5 11.9444 0.5C6.76495 0.5 2.38473 3.92444 0.945312 8.63306Z" fill="#1877F2"/>
<path fill-rule="evenodd" clip-rule="evenodd" d="M16.096 10.7219C16.0113 10.7219 15.9301 10.7556 15.8702 10.8155C15.8103 10.8754 15.7766 10.9566 15.7766 11.0414C15.7766 11.1261 15.8103 11.2073 15.8702 11.2672C15.9301 11.3271 16.0113 11.3608 16.096 11.3608C16.1808 11.3608 16.262 11.3271 16.3219 11.2672C16.3818 11.2073 16.4155 11.1261 16.4155 11.0414C16.4155 10.9566 16.3818 10.8754 16.3219 10.8155C16.262 10.7556 16.1808 10.7219 16.096 10.7219ZM14.4988 11.0414C14.4988 10.6178 14.6671 10.2115 14.9666 9.91195C15.2662 9.61242 15.6724 9.44414 16.096 9.44414C16.5197 9.44414 16.9259 9.61242 17.2255 9.91195C17.525 10.2115 17.6933 10.6178 17.6933 11.0414C17.6933 11.465 17.525 11.8712 17.2255 12.1708C16.9259 12.4703 16.5197 12.6386 16.096 12.6386C15.6724 12.6386 15.2662 12.4703 14.9666 12.1708C14.6671 11.8712 14.4988 11.465 14.4988 11.0414ZM6.94141 12.3945C7.19469 12.5536 7.48756 12.6384 7.78667 12.6392C8.08577 12.64 8.37909 12.5568 8.63323 12.3991C8.88737 12.2413 9.09211 12.0154 9.22414 11.747C9.35617 11.4786 9.41019 11.1786 9.38005 10.881L6.94141 12.3945Z" fill="#1877F2"/>
<path fill-rule="evenodd" clip-rule="evenodd" d="M13.2213 0.819344L1.72126 7.84712C-0.834301 9.44434 -0.195412 16.7916 1.40181 15.8332L19.9296 4.33323C21.5268 3.3749 15.1379 -0.458434 13.2213 0.819344ZM1.46059 14.2929L18.5202 3.70393C18.2174 3.4439 17.7887 3.14426 17.268 2.85229C16.5269 2.43701 15.7129 2.10032 15.0153 1.93932C14.6671 1.85946 14.3872 1.83198 14.1815 1.84093C13.9962 1.84859 13.9291 1.88373 13.9272 1.88437L13.9093 1.89651L2.39464 8.93323C2.13653 9.09679 1.82603 9.50759 1.59092 10.2768C1.36412 11.0179 1.26381 11.9162 1.2817 12.7717C1.29448 13.3812 1.36539 13.9051 1.46059 14.2922V14.2929ZM8.64362 17.9467C8.6427 17.9446 8.64206 17.9425 8.6417 17.9403L8.64362 17.9467ZM8.64298 17.7512C8.665 17.5858 8.7165 17.4256 8.79503 17.2784C9.32787 16.4613 10.4728 15.8332 11.8745 15.8332C13.2245 15.8332 14.3393 16.4165 14.8951 17.1922C14.9411 17.256 14.9654 17.2861 14.9801 17.3059C14.9955 17.3263 15.0025 17.3346 15.0146 17.3557C15.0363 17.394 15.0747 17.486 15.1021 17.6132C15.1092 17.647 15.1149 17.6796 15.12 17.7109C13.7637 17.2695 12.8775 17.0018 11.9697 16.9973C11.0305 16.9915 10.1054 17.2656 8.64298 17.7512ZM15.1207 17.9671C15.1207 17.9671 15.1207 17.9646 15.1226 17.9607C15.1222 17.9629 15.1216 17.9651 15.1207 17.9671ZM7.44889 17.2235C7.51087 16.9966 7.60542 16.7635 7.72426 16.5814C8.53437 15.3381 10.1233 14.5555 11.8745 14.5555C13.565 14.5555 15.0996 15.2831 15.934 16.4478L15.9448 16.4625C15.9768 16.5047 16.0675 16.6235 16.1225 16.72C16.2272 16.9021 16.3039 17.127 16.3505 17.3417C16.4042 17.5768 16.4206 17.8189 16.3991 18.0591C16.3748 18.2866 16.2905 18.6341 15.9902 18.8692C15.6561 19.1312 15.2555 19.1069 14.9322 18.9938C13.4027 18.4942 12.6769 18.2783 11.9626 18.2744C11.2503 18.2706 10.5079 18.477 8.95092 18.9951L8.94581 18.997L8.9407 18.9983C8.58292 19.1107 8.16062 19.1363 7.80923 18.8788C7.47189 18.6322 7.38181 18.2553 7.36201 17.9991C7.34731 17.7375 7.37669 17.4753 7.44889 17.2235Z" fill="#1877F2"/>
</svg>
