<svg width="25" height="24" viewBox="0 0 25 24" fill="none" xmlns="http://www.w3.org/2000/svg">
<path d="M7.28711 13.7143H14.1443V15.4286H7.28711V13.7143ZM7.28711 9.42857H17.5728V11.1429H7.28711V9.42857ZM7.28711 18H11.5728V19.7143H7.28711V18Z" fill="#1877F2"/>
<path d="M20.1448 2.57143H17.5734V1.71429C17.5734 1.25963 17.3928 0.823593 17.0713 0.502103C16.7498 0.180612 16.3138 0 15.8591 0H9.00195C8.5473 0 8.11126 0.180612 7.78977 0.502103C7.46828 0.823593 7.28767 1.25963 7.28767 1.71429V2.57143H4.71624C4.26158 2.57143 3.82555 2.75204 3.50406 3.07353C3.18256 3.39502 3.00195 3.83106 3.00195 4.28571V22.2857C3.00195 22.7404 3.18256 23.1764 3.50406 23.4979C3.82555 23.8194 4.26158 24 4.71624 24H20.1448C20.5995 24 21.0355 23.8194 21.357 23.4979C21.6785 23.1764 21.8591 22.7404 21.8591 22.2857V4.28571C21.8591 3.83106 21.6785 3.39502 21.357 3.07353C21.0355 2.75204 20.5995 2.57143 20.1448 2.57143ZM9.00195 1.71429H15.8591V5.14286H9.00195V1.71429ZM20.1448 22.2857H4.71624V4.28571H7.28767V6.85714H17.5734V4.28571H20.1448V22.2857Z" fill="#1877F2"/>
</svg>
