<svg width="33" height="26" viewBox="0 0 33 26" fill="none" xmlns="http://www.w3.org/2000/svg">
<path d="M27.8342 4.98257L29.8935 4.981M28.872 7.70558L31.5254 7.70323M14.3216 14.6074C18.4441 12.0433 23.2444 17.5981 26.502 13.0499C29.2477 9.21541 22.4187 4.20065 20.0314 2.64777C17.1511 0.774772 14.6292 1.09959 13.0772 2.06466C11.2222 3.21836 10.9842 5.61969 9.35933 6.63015C7.73444 7.64062 5.47635 6.79373 3.62135 7.94743C2.07004 8.9125 0.66353 11.0313 1.07132 14.4438C1.40866 17.271 2.88953 25.613 7.5419 24.8451C13.0615 23.9333 10.1999 17.1716 14.3216 14.6074Z" stroke="#2C50ED" stroke-width="1.5" stroke-linecap="round" stroke-linejoin="round"/>
<path d="M6.85726 16.0765C8.20552 16.0765 9.2985 14.9835 9.2985 13.6353C9.2985 12.287 8.20552 11.194 6.85726 11.194C5.509 11.194 4.41602 12.287 4.41602 13.6353C4.41602 14.9835 5.509 16.0765 6.85726 16.0765Z" stroke="#2C50ED" stroke-width="2" stroke-linecap="round" stroke-linejoin="round"/>
<path d="M15.0882 7.89425C15.6558 7.89425 16.1159 7.43414 16.1159 6.86657C16.1159 6.29899 15.6558 5.83888 15.0882 5.83888C14.5207 5.83888 14.0605 6.29899 14.0605 6.86657C14.0605 7.43414 14.5207 7.89425 15.0882 7.89425Z" stroke="#2C50ED" stroke-linecap="round" stroke-linejoin="round"/>
<path d="M18.8226 8.76379C19.3902 8.76379 19.8503 8.30368 19.8503 7.7361C19.8503 7.16853 19.3902 6.70842 18.8226 6.70842C18.255 6.70842 17.7949 7.16853 17.7949 7.7361C17.7949 8.30368 18.255 8.76379 18.8226 8.76379Z" stroke="#2C50ED" stroke-linecap="round" stroke-linejoin="round"/>
<path d="M8.75977 24.4969L12.267 24.4946M11.3067 20.9552L14.1056 20.9536M26.4097 13.1728L27.2972 13.172M27.0632 10.3512L29.1131 10.3496M25.7647 7.70799L26.9568 7.70642M23.2475 5.06794L25.9189 5.06638M28.8759 13.1712L30.6292 13.1697M14.3874 24.493L16.1406 24.4914M19.2855 2.20796L22.385 2.20561" stroke="#2C50ED" stroke-linecap="round" stroke-linejoin="round"/>
</svg>
