<svg width="41" height="33" viewBox="0 0 41 33" fill="none" xmlns="http://www.w3.org/2000/svg">
<path d="M35.2841 5.71809L37.9151 5.71609M36.6101 9.19709L40.0001 9.19409M18.0201 18.0151C23.2871 14.7391 29.4201 21.8361 33.5821 16.0251C37.0901 11.1261 28.3651 4.71909 25.3151 2.73509C21.6351 0.34209 18.4131 0.757089 16.4301 1.99009C14.0601 3.46409 13.7561 6.53209 11.6801 7.82309C9.60412 9.11409 6.71912 8.03209 4.34912 9.50609C2.36712 10.7391 0.570116 13.4461 1.09112 17.8061C1.52212 21.4181 3.41412 32.0761 9.35812 31.0951C16.4101 29.9301 12.7541 21.2911 18.0201 18.0151Z" stroke="#2C50ED" stroke-width="2" stroke-linecap="round" stroke-linejoin="round"/>
<path d="M8.48228 19.8921C10.2049 19.8921 11.6013 18.4956 11.6013 16.7731C11.6013 15.0505 10.2049 13.6541 8.48228 13.6541C6.7597 13.6541 5.36328 15.0505 5.36328 16.7731C5.36328 18.4956 6.7597 19.8921 8.48228 19.8921Z" stroke="#2C50ED" stroke-width="2" stroke-linecap="round" stroke-linejoin="round"/>
<path d="M19.0005 9.43813C19.7256 9.43813 20.3135 8.85028 20.3135 8.12513C20.3135 7.39998 19.7256 6.81213 19.0005 6.81213C18.2753 6.81213 17.6875 7.39998 17.6875 8.12513C17.6875 8.85028 18.2753 9.43813 19.0005 9.43813Z" stroke="#2C50ED" stroke-linecap="round" stroke-linejoin="round"/>
<path d="M23.77 10.5491C24.4952 10.5491 25.083 9.96125 25.083 9.2361C25.083 8.51095 24.4952 7.9231 23.77 7.9231C23.0449 7.9231 22.457 8.51095 22.457 9.2361C22.457 9.96125 23.0449 10.5491 23.77 10.5491Z" stroke="#2C50ED" stroke-linecap="round" stroke-linejoin="round"/>
<path d="M10.9141 30.6502L15.3951 30.6472M14.1681 26.1252L17.7441 26.1232M33.4641 16.1822L34.5981 16.1812M34.2991 12.5772L36.9181 12.5752M32.6401 9.20017L34.1631 9.19817M29.4241 5.82717L32.8371 5.82517M36.6151 16.1802L38.8551 16.1782M18.1041 30.6452L20.3441 30.6432M24.3621 2.17317L28.3221 2.17017" stroke="#2C50ED" stroke-linecap="round" stroke-linejoin="round"/>
</svg>
