<svg width="20" height="20" viewBox="0 0 20 20" fill="none" xmlns="http://www.w3.org/2000/svg">
<path d="M17.6943 5.60101H14.4617C14.4977 5.56801 14.5345 5.53601 14.5695 5.50101C14.8494 5.23121 15.0749 4.90164 15.2321 4.53293C15.3892 4.16422 15.4745 3.76429 15.4827 3.35816C15.4948 2.91387 15.4231 2.47157 15.272 2.05844C15.1209 1.6453 14.8936 1.27004 14.604 0.955695C14.3144 0.641347 13.9686 0.394544 13.5879 0.23044C13.2073 0.0663363 12.7997 -0.0116068 12.3903 0.00139604C12.0158 0.0101473 11.6471 0.102674 11.3072 0.273184C10.9672 0.443694 10.6634 0.688517 10.4146 0.992327C10.0704 1.42519 9.79061 1.9137 9.58529 2.44023C9.37996 1.9137 9.10015 1.42519 8.75596 0.992327C8.50722 0.688517 8.20337 0.443694 7.86342 0.273184C7.52347 0.102674 7.15474 0.0101473 6.78032 0.00139604C6.37088 -0.0116068 5.96331 0.0663363 5.58264 0.23044C5.20196 0.394544 4.85621 0.641347 4.56661 0.955695C4.27702 1.27004 4.04968 1.6453 3.89857 2.05844C3.74745 2.47157 3.67575 2.91387 3.68785 3.35816C3.69604 3.76429 3.78137 4.16422 3.9385 4.53293C4.09562 4.90164 4.32117 5.23121 4.60103 5.50101C4.63605 5.53401 4.67291 5.56601 4.70884 5.60101H1.47631C1.08529 5.60101 0.710279 5.76956 0.433783 6.0696C0.157287 6.36964 0.00195313 6.77658 0.00195312 7.20089V10.4007C0.00195313 10.825 0.157287 11.2319 0.433783 11.532C0.710279 11.832 1.08529 12.0006 1.47631 12.0006V18.4001C1.47631 18.8244 1.63165 19.2314 1.90814 19.5314C2.18464 19.8314 2.55965 20 2.95067 20H16.2199C16.6109 20 16.9859 19.8314 17.2624 19.5314C17.5389 19.2314 17.6943 18.8244 17.6943 18.4001V12.0006C18.0853 12.0006 18.4603 11.832 18.7368 11.532C19.0133 11.2319 19.1686 10.825 19.1686 10.4007V7.20089C19.1686 6.77658 19.0133 6.36964 18.7368 6.0696C18.4603 5.76956 18.0853 5.60101 17.6943 5.60101ZM11.5204 2.05225C11.6371 1.91238 11.7792 1.80021 11.9378 1.72278C12.0964 1.64534 12.268 1.60432 12.4419 1.60228H12.487C12.6908 1.60367 12.8923 1.64918 13.0797 1.73615C13.2671 1.82312 13.4366 1.9498 13.5783 2.10876C13.72 2.26773 13.831 2.45579 13.9048 2.66191C13.9787 2.86804 14.0139 3.08809 14.0084 3.30917C14.0065 3.49785 13.9687 3.68408 13.8973 3.85615C13.826 4.02823 13.7226 4.18244 13.5937 4.3091C12.7192 5.14904 11.2679 5.44502 10.3685 5.54901C10.4791 4.49008 10.7832 2.95119 11.5204 2.05225ZM5.61465 2.08825C5.90026 1.77836 6.28705 1.60335 6.69093 1.60128H6.73609C6.90997 1.60332 7.08158 1.64434 7.24016 1.72178C7.39873 1.79921 7.54084 1.91138 7.65756 2.05125C8.43068 2.99919 8.70343 4.57108 8.79927 5.54301C7.9036 5.44302 6.45504 5.14304 5.58148 4.3041C5.45259 4.17744 5.34921 4.02323 5.27785 3.85115C5.2065 3.67908 5.16869 3.49285 5.16682 3.30417C5.1611 3.07942 5.19752 2.85575 5.27387 2.64673C5.35022 2.43772 5.46491 2.24772 5.61097 2.08825H5.61465ZM1.47631 7.20089H8.84811V10.4007H1.47631V7.20089ZM2.95067 12.0006H8.84811V18.4001H2.95067V12.0006ZM16.2199 18.4001H10.3225V12.0006H16.2199V18.4001ZM17.6943 10.4007H10.3225V7.20089H17.6943V10.4007Z" fill="#1877F2"/>
</svg>
