<svg width="24" height="24" viewBox="0 0 24 24" fill="none" xmlns="http://www.w3.org/2000/svg">
<path d="M11.502 12C11.9595 12 12.3982 12.1817 12.7217 12.5052C13.0452 12.8287 13.227 13.2675 13.227 13.725C13.227 14.1825 13.0452 14.6213 12.7217 14.9448C12.3982 15.2683 11.9595 15.45 11.502 15.45C11.0445 15.45 10.6057 15.2683 10.2822 14.9448C9.95869 14.6213 9.77695 14.1825 9.77695 13.725C9.77695 13.2675 9.95869 12.8287 10.2822 12.5052C10.6057 12.1817 11.0445 12 11.502 12ZM11.502 0.5C13.0122 0.5 14.5076 0.797456 15.9028 1.37539C17.2981 1.95331 18.5658 2.8004 19.6337 3.86827C20.7016 4.93615 21.5486 6.2039 22.1266 7.59914C22.7045 8.99438 23.002 10.4898 23.002 12C23.002 15.05 21.7903 17.9751 19.6337 20.1317C17.477 22.2884 14.5519 23.5 11.502 23.5C9.99175 23.5 8.49634 23.2025 7.10109 22.6246C5.70585 22.0467 4.4381 21.1996 3.37023 20.1317C1.21356 17.9751 0.00195313 15.05 0.00195312 12C0.00195313 8.95001 1.21356 6.02494 3.37023 3.86827C5.52689 1.7116 8.45196 0.5 11.502 0.5ZM11.502 16.6C12.33 16.6 13.112 16.7725 13.848 17.175C14.584 17.52 14.952 17.98 14.952 18.5205V20.5215C16.493 19.8315 17.252 18.992 17.252 17.98V12.92C17.252 12 16.677 11.2525 15.4695 10.62C14.262 9.999 12.9395 9.7 11.502 9.7C10.0645 9.7 8.74195 9.999 7.53445 10.62C6.32695 11.2525 5.75195 12 5.75195 12.92V17.98C5.75195 18.9 6.36145 19.6935 7.62645 20.303C8.87995 20.9125 10.168 21.2 11.502 21.2L12.652 21.108V18.7965L11.502 18.9C10.352 18.9 9.20195 18.67 8.10945 18.1985C8.24745 17.75 8.66145 17.3935 9.35145 17.0715C10.03 16.7495 10.743 16.6 11.502 16.6ZM11.502 2.8C10.7395 2.8 10.0082 3.1029 9.46902 3.64207C8.92985 4.18124 8.62695 4.9125 8.62695 5.675C8.62695 6.4375 8.92985 7.16876 9.46902 7.70793C10.0082 8.2471 10.7395 8.55 11.502 8.55C12.2645 8.55 12.9957 8.2471 13.5349 7.70793C14.0741 7.16876 14.377 6.4375 14.377 5.675C14.377 4.9125 14.0741 4.18124 13.5349 3.64207C12.9957 3.1029 12.2645 2.8 11.502 2.8Z" fill="#1877F2"/>
</svg>
