<svg width="25" height="24" viewBox="0 0 25 24" fill="none" xmlns="http://www.w3.org/2000/svg">
<path d="M21.002 6.75V21C21.002 21.7956 20.6859 22.5587 20.1233 23.1213C19.5607 23.6839 18.7976 24 18.002 24H6.00195C5.2063 24 4.44324 23.6839 3.88063 23.1213C3.31802 22.5587 3.00195 21.7956 3.00195 21V3C3.00195 2.20435 3.31802 1.44129 3.88063 0.87868C4.44324 0.316071 5.2063 0 6.00195 0L14.252 0L21.002 6.75ZM16.502 6.75C15.9052 6.75 15.3329 6.51295 14.911 6.09099C14.489 5.66903 14.252 5.09674 14.252 4.5V1.5H6.00195C5.60413 1.5 5.2226 1.65804 4.94129 1.93934C4.65999 2.22064 4.50195 2.60218 4.50195 3V21C4.50195 21.3978 4.65999 21.7794 4.94129 22.0607C5.2226 22.342 5.60413 22.5 6.00195 22.5H18.002C18.3998 22.5 18.7813 22.342 19.0626 22.0607C19.3439 21.7794 19.502 21.3978 19.502 21V6.75H16.502Z" fill="#1877F2"/>
<path d="M6.00195 9.75C6.00195 9.55109 6.08097 9.36032 6.22162 9.21967C6.36228 9.07902 6.55304 9 6.75195 9H17.252C17.4509 9 17.6416 9.07902 17.7823 9.21967C17.9229 9.36032 18.002 9.55109 18.002 9.75V20.25C18.002 20.4489 17.9229 20.6397 17.7823 20.7803C17.6416 20.921 17.4509 21 17.252 21H6.75195C6.55304 21 6.36228 20.921 6.22162 20.7803C6.08097 20.6397 6.00195 20.4489 6.00195 20.25V9.75ZM6.00195 5.25C6.00195 5.05109 6.08097 4.86032 6.22162 4.71967C6.36228 4.57902 6.55304 4.5 6.75195 4.5H10.502C10.7009 4.5 10.8916 4.57902 11.0323 4.71967C11.1729 4.86032 11.252 5.05109 11.252 5.25C11.252 5.44891 11.1729 5.63968 11.0323 5.78033C10.8916 5.92098 10.7009 6 10.502 6H6.75195C6.55304 6 6.36228 5.92098 6.22162 5.78033C6.08097 5.63968 6.00195 5.44891 6.00195 5.25Z" fill="#1877F2"/>
</svg>
