<svg width="25" height="22" viewBox="0 0 25 22" fill="none" xmlns="http://www.w3.org/2000/svg">
<g clip-path="url(#clip0_405_10593)">
<path d="M0.00195312 4.5C0.00195313 3.30653 0.408329 2.16193 1.13168 1.31802C1.85504 0.474106 2.83612 0 3.8591 0H20.1448C21.1678 0 22.1489 0.474106 22.8722 1.31802C23.5956 2.16193 24.002 3.30653 24.002 4.5V17.5C24.002 18.6935 23.5956 19.8381 22.8722 20.682C22.1489 21.5259 21.1678 22 20.1448 22H3.8591C2.83612 22 1.85504 21.5259 1.13168 20.682C0.408329 19.8381 0.00195313 18.6935 0.00195312 17.5V4.5ZM3.8591 2C3.29078 2 2.74573 2.26339 2.34387 2.73223C1.942 3.20107 1.71624 3.83696 1.71624 4.5V6H22.2877V4.5C22.2877 3.83696 22.0619 3.20107 21.66 2.73223C21.2582 2.26339 20.7131 2 20.1448 2H3.8591ZM1.71624 17.5C1.71624 18.163 1.942 18.7989 2.34387 19.2678C2.74573 19.7366 3.29078 20 3.8591 20H20.1448C20.7131 20 21.2582 19.7366 21.66 19.2678C22.0619 18.7989 22.2877 18.163 22.2877 17.5V8H1.71624V17.5ZM16.2877 14H18.8591C19.0864 14 19.3044 14.1054 19.4652 14.2929C19.6259 14.4804 19.7162 14.7348 19.7162 15C19.7162 15.2652 19.6259 15.5196 19.4652 15.7071C19.3044 15.8946 19.0864 16 18.8591 16H16.2877C16.0603 16 15.8423 15.8946 15.6816 15.7071C15.5208 15.5196 15.4305 15.2652 15.4305 15C15.4305 14.7348 15.5208 14.4804 15.6816 14.2929C15.8423 14.1054 16.0603 14 16.2877 14Z" fill="#1877F2"/>
</g>
<defs>
<clipPath id="clip0_405_10593">
<rect width="24" height="22" fill="white" transform="translate(0.00195312)"/>
</clipPath>
</defs>
</svg>
