<svg width="24" height="24" viewBox="0 0 24 24" fill="none" xmlns="http://www.w3.org/2000/svg">
<path d="M19.1686 0.5H3.83529C1.71814 0.5 0.00195312 2.21618 0.00195312 4.33333V19.6667C0.00195312 21.7838 1.71814 23.5 3.83529 23.5H19.1686C21.2858 23.5 23.002 21.7838 23.002 19.6667V4.33333C23.002 2.21618 21.2858 0.5 19.1686 0.5ZM8.14012 16.7399H6.2706L3.06862 7.29267H5.18232L7.23814 14.4648L9.31274 7.29267H11.3686L8.14012 16.7399ZM18.9321 16.1285C18.2636 16.6985 17.3187 16.9833 16.0974 16.9833C14.8508 16.9833 13.8706 16.7027 13.1564 16.1412C12.4423 15.5788 12.085 14.8068 12.085 13.8239H13.9741C14.0346 14.2551 14.1554 14.5779 14.334 14.7914C14.6618 15.1809 15.2241 15.3745 16.0199 15.3745C16.496 15.3745 16.8832 15.3231 17.181 15.2208C17.7449 15.0245 18.0271 14.6592 18.0271 14.1248C18.0271 13.8132 17.8887 13.5717 17.6123 13.4007C17.3359 13.2336 16.8974 13.0864 16.2975 12.9583L15.2724 12.7345C14.2646 12.5118 13.5727 12.2703 13.1955 12.0096C12.5577 11.5741 12.2387 10.8922 12.2387 9.96488C12.2387 9.11887 12.5504 8.41622 13.1744 7.85617C13.7989 7.2965 14.7158 7.01667 15.926 7.01667C16.9361 7.01667 17.7978 7.2804 18.5104 7.80825C19.2238 8.33572 19.5976 9.102 19.6328 10.1059H17.7311C17.6959 9.53785 17.4413 9.13382 16.9668 8.89462C16.6509 8.73668 16.2576 8.65695 15.7884 8.65695C15.2659 8.65695 14.8488 8.76007 14.5364 8.96515C14.2248 9.17023 14.0691 9.45697 14.0691 9.82382C14.0691 10.1615 14.2225 10.4138 14.5303 10.5809C14.7281 10.6917 15.1471 10.822 15.788 10.9715L17.4501 11.3629C18.1777 11.5339 18.7243 11.7623 19.0874 12.0487C19.6532 12.4926 19.9353 13.1354 19.9353 13.9776C19.9353 14.8409 19.6014 15.5573 18.9321 16.1285Z" fill="#1877F2"/>
</svg>
