<svg width="26" height="26" viewBox="0 0 26 26" fill="none" xmlns="http://www.w3.org/2000/svg">
<path d="M1.00195 13C1.00195 14.5102 1.29941 16.0056 1.87734 17.4009C2.45527 18.7961 3.30235 20.0639 4.37022 21.1317C5.4381 22.1996 6.70585 23.0467 8.10109 23.6246C9.49634 24.2025 10.9918 24.5 12.502 24.5C14.0122 24.5 15.5076 24.2025 16.9028 23.6246C18.2981 23.0467 19.5658 22.1996 20.6337 21.1317C21.7016 20.0639 22.5486 18.7961 23.1266 17.4009C23.7045 16.0056 24.002 14.5102 24.002 13C24.002 11.4898 23.7045 9.99438 23.1266 8.59914C22.5486 7.2039 21.7016 5.93615 20.6337 4.86827C19.5658 3.8004 18.2981 2.95331 16.9028 2.37539C15.5076 1.79746 14.0122 1.5 12.502 1.5C10.9918 1.5 9.49634 1.79746 8.10109 2.37539C6.70585 2.95331 5.4381 3.8004 4.37022 4.86827C3.30235 5.93615 2.45527 7.2039 1.87734 8.59914C1.29941 9.99438 1.00195 11.4898 1.00195 13Z" stroke="#1877F2" stroke-width="2" stroke-linecap="round" stroke-linejoin="round"/>
<path d="M16.0791 9.16667C15.8476 8.76514 15.5113 8.43412 15.1062 8.20904C14.701 7.98396 14.2423 7.8733 13.7791 7.88889H11.2235C10.5457 7.88889 9.89573 8.15814 9.41647 8.6374C8.93721 9.11666 8.66797 9.76667 8.66797 10.4444C8.66797 11.1222 8.93721 11.7722 9.41647 12.2515C9.89573 12.7308 10.5457 13 11.2235 13H13.7791C14.4569 13 15.1069 13.2692 15.5861 13.7485C16.0654 14.2278 16.3346 14.8778 16.3346 15.5556C16.3346 16.2333 16.0654 16.8833 15.5861 17.3626C15.1069 17.8419 14.4569 18.1111 13.7791 18.1111H11.2235C10.7603 18.1267 10.3016 18.016 9.89645 17.791C9.4913 17.5659 9.155 17.2349 8.92352 16.8333M12.5013 6.61111V19.3889" stroke="#1877F2" stroke-width="2" stroke-linecap="round" stroke-linejoin="round"/>
</svg>
