<svg width="24" height="24" viewBox="0 0 24 24" fill="none" xmlns="http://www.w3.org/2000/svg">
<path d="M16.2681 0.5H6.73584L0.00195312 7.23389V16.7661L6.73584 23.5H16.2681L23.002 16.7661V7.23389L16.2681 0.5ZM20.4464 15.7056L15.2075 20.9444H7.7964L2.55751 15.7056V8.29445L7.7964 3.05556H15.2075L20.4464 8.29445V15.7056Z" fill="#1877F2"/>
<path d="M11.5024 18.3887C12.2081 18.3887 12.7802 17.8166 12.7802 17.1109C12.7802 16.4052 12.2081 15.8332 11.5024 15.8332C10.7967 15.8332 10.2246 16.4052 10.2246 17.1109C10.2246 17.8166 10.7967 18.3887 11.5024 18.3887Z" fill="#1877F2"/>
<path d="M10.2246 5.61089H12.7802V14.5553H10.2246V5.61089Z" fill="#1877F2"/>
</svg>
