<svg width="24" height="24" viewBox="0 0 24 24" fill="none" xmlns="http://www.w3.org/2000/svg">
<path d="M11.7768 16.2857C16.0373 16.2857 19.4911 12.8319 19.4911 8.57143C19.4911 4.31095 16.0373 0.857147 11.7768 0.857147C7.5163 0.857147 4.0625 4.31095 4.0625 8.57143C4.0625 12.8319 7.5163 16.2857 11.7768 16.2857Z" stroke="#2C50ED" stroke-linecap="round" stroke-linejoin="round"/>
<path d="M11.7782 12C13.6717 12 15.2068 10.465 15.2068 8.57142C15.2068 6.67788 13.6717 5.14285 11.7782 5.14285C9.88463 5.14285 8.34961 6.67788 8.34961 8.57142C8.34961 10.465 9.88463 12 11.7782 12Z" stroke="#2C50ED" stroke-linecap="round" stroke-linejoin="round"/>
<path d="M10.2858 16.1486L8.77724 22.4914C8.74739 22.612 8.6922 22.7248 8.61534 22.8223C8.53849 22.9199 8.44174 22.9999 8.33153 23.0572C8.21521 23.1076 8.08976 23.1337 7.96296 23.1337C7.83615 23.1337 7.7107 23.1076 7.59439 23.0572L1.90296 20.5714C1.78358 20.515 1.67853 20.4323 1.5957 20.3294C1.51288 20.2266 1.45443 20.1063 1.42473 19.9776C1.39504 19.849 1.39488 19.7152 1.42426 19.5865C1.45365 19.4578 1.51181 19.3373 1.59439 19.2343L6.0001 13.7143M13.7144 16.0629L15.2572 22.4914C15.2879 22.614 15.3453 22.7283 15.4253 22.8261C15.5054 22.9239 15.606 23.0028 15.7201 23.0572C15.8332 23.1083 15.956 23.1347 16.0801 23.1347C16.2042 23.1347 16.327 23.1083 16.4401 23.0572L22.0972 20.5714C22.2184 20.5157 22.3249 20.4324 22.4082 20.3282C22.4916 20.2241 22.5494 20.1019 22.5772 19.9714C22.6097 19.8438 22.6111 19.7103 22.5813 19.582C22.5515 19.4537 22.4913 19.3345 22.4058 19.2343L17.8115 13.3886" stroke="#2C50ED" stroke-linecap="round" stroke-linejoin="round"/>
</svg>
