<svg width="25" height="24" viewBox="0 0 25 24" fill="none" xmlns="http://www.w3.org/2000/svg">
<g clip-path="url(#clip0_405_10561)">
<path d="M12.0025 17.1772V18.9086M12.0025 8.58858V10.2M12.0025 23.1257C18.0025 23.1257 22.2882 21 22.2882 16.2686C22.2882 11.1257 19.7168 7.69715 14.5739 5.12573L16.5968 2.52001C16.6996 2.34905 16.7553 2.15395 16.7584 1.9545C16.7614 1.75505 16.7117 1.55833 16.6143 1.38429C16.5168 1.21025 16.375 1.06507 16.2034 0.963462C16.0317 0.861857 15.8363 0.807439 15.6368 0.805725H8.36823C8.16876 0.807439 7.97329 0.861857 7.80163 0.963462C7.62998 1.06507 7.48823 1.21025 7.39077 1.38429C7.2933 1.55833 7.24359 1.75505 7.24665 1.9545C7.24972 2.15395 7.30546 2.34905 7.40823 2.52001L9.43108 5.14287C4.28823 7.73144 1.7168 11.16 1.7168 16.3029C1.7168 21 6.00251 23.1257 12.0025 23.1257Z" stroke="#1877F2" stroke-width="2" stroke-linecap="round" stroke-linejoin="round"/>
<path d="M10.2886 16.3886C10.4978 16.6369 10.761 16.834 11.0582 16.9647C11.3554 17.0955 11.6785 17.1564 12.0029 17.1429C12.4987 17.1767 12.9882 17.0169 13.3687 16.6972C13.7491 16.3775 13.9908 15.9228 14.0429 15.4286C13.9908 14.9344 13.7491 14.4796 13.3687 14.1599C12.9882 13.8402 12.4987 13.6805 12.0029 13.7143C11.5071 13.7481 11.0175 13.5884 10.6371 13.2687C10.2567 12.949 10.015 12.4942 9.96289 12C10.0108 11.5041 10.2513 11.0467 10.6327 10.7262C11.0142 10.4057 11.5061 10.2475 12.0029 10.2857C12.3216 10.2662 12.6406 10.3176 12.937 10.4362C13.2334 10.5548 13.4999 10.7376 13.7172 10.9714" stroke="#1877F2" stroke-width="2" stroke-linecap="round" stroke-linejoin="round"/>
</g>
<defs>
<clipPath id="clip0_405_10561">
<rect width="24" height="24" fill="white" transform="translate(0.00195312)"/>
</clipPath>
</defs>
</svg>
