<svg width="24" height="24" viewBox="0 0 24 24" fill="none" xmlns="http://www.w3.org/2000/svg">
<path d="M8.39695 23.5L7.93695 19.82C7.68779 19.7242 7.4528 19.6092 7.232 19.475C7.0112 19.3408 6.79577 19.1971 6.5857 19.0437L3.16445 20.4812L0.00195312 15.0187L2.9632 12.7762C2.94404 12.6421 2.93445 12.5125 2.93445 12.3875V11.6124C2.93445 11.4875 2.94404 11.3579 2.9632 11.2237L0.00195312 8.98125L3.16445 3.51875L6.5857 4.95625C6.79654 4.80292 7.01695 4.65917 7.24695 4.525C7.47695 4.39083 7.70695 4.27583 7.93695 4.18L8.39695 0.5H14.722L15.182 4.18C15.4311 4.27583 15.6661 4.39083 15.8869 4.525C16.1077 4.65917 16.3231 4.80292 16.5332 4.95625L19.9545 3.51875L23.117 8.98125L20.1557 11.2237C20.1749 11.3579 20.1845 11.4875 20.1845 11.6124V12.3875C20.1845 12.5125 20.1653 12.6421 20.127 12.7762L23.0882 15.0187L19.9257 20.4812L16.5332 19.0437C16.3224 19.1971 16.102 19.3408 15.872 19.475C15.642 19.6092 15.412 19.7242 15.182 19.82L14.722 23.5H8.39695ZM11.617 16.025C12.7286 16.025 13.6774 15.6321 14.4632 14.8463C15.249 14.0604 15.642 13.1117 15.642 12C15.642 10.8883 15.249 9.93958 14.4632 9.15375C13.6774 8.36792 12.7286 7.975 11.617 7.975C10.4861 7.975 9.53239 8.36792 8.75575 9.15375C7.97912 9.93958 7.59119 10.8883 7.59195 12C7.59195 13.1117 7.97989 14.0604 8.75575 14.8463C9.53162 15.6321 10.4854 16.025 11.617 16.025ZM11.617 13.725C11.1378 13.725 10.7303 13.5571 10.3945 13.2213C10.0587 12.8855 9.89119 12.4784 9.89195 12C9.89195 11.5208 10.0599 11.1133 10.3957 10.7775C10.7315 10.4418 11.1386 10.2742 11.617 10.275C12.0961 10.275 12.5036 10.4429 12.8394 10.7787C13.1752 11.1145 13.3427 11.5216 13.342 12C13.342 12.4792 13.1741 12.8866 12.8383 13.2224C12.5025 13.5582 12.0954 13.7258 11.617 13.725ZM10.4095 21.2H12.6807L13.0832 18.1525C13.6774 17.9992 14.2286 17.7738 14.7369 17.4763C15.2452 17.1788 15.7098 16.8196 16.1307 16.3987L18.977 17.5775L20.0982 15.6225L17.6257 13.7537C17.7215 13.4854 17.7886 13.2029 17.827 12.9062C17.8653 12.6095 17.8845 12.3074 17.8845 12C17.8845 11.6933 17.8653 11.3917 17.827 11.0949C17.7886 10.7983 17.7215 10.5154 17.6257 10.2463L20.0982 8.3775L18.977 6.4225L16.1307 7.63C15.709 7.18917 15.2444 6.8204 14.7369 6.5237C14.2294 6.227 13.6781 6.0016 13.0832 5.8475L12.7095 2.8H10.4382L10.0357 5.8475C9.44154 6.00083 8.89069 6.22623 8.38315 6.5237C7.87562 6.82117 7.41064 7.18035 6.9882 7.60125L4.14195 6.4225L3.0207 8.3775L5.4932 10.2175C5.39737 10.505 5.33029 10.7925 5.29195 11.08C5.25362 11.3675 5.23445 11.6742 5.23445 12C5.23445 12.3067 5.25362 12.6037 5.29195 12.8912C5.33029 13.1787 5.39737 13.4662 5.4932 13.7537L3.0207 15.6225L4.14195 17.5775L6.9882 16.37C7.40987 16.8108 7.87485 17.18 8.38315 17.4774C8.89145 17.7749 9.4423 17.9999 10.0357 18.1525L10.4095 21.2Z" fill="#1877F2"/>
</svg>
