<svg width="24" height="24" viewBox="0 0 24 24" fill="none" xmlns="http://www.w3.org/2000/svg">
<path d="M12.7099 13.2001L9.9499 15.948C9.83743 16.0596 9.74816 16.1923 9.68723 16.3385C9.62631 16.4848 9.59495 16.6416 9.59495 16.8C9.59495 16.9584 9.62631 17.1153 9.68723 17.2615C9.74816 17.4078 9.83743 17.5405 9.9499 17.652C10.0615 17.7645 10.1942 17.8538 10.3404 17.9147C10.4866 17.9756 10.6435 18.007 10.8019 18.007C10.9603 18.007 11.1172 17.9756 11.2634 17.9147C11.4096 17.8538 11.5423 17.7645 11.6539 17.652L16.4539 12.8521C16.5631 12.7379 16.6488 12.6034 16.7059 12.4561C16.8259 12.1639 16.8259 11.8362 16.7059 11.5441C16.6488 11.3968 16.5631 11.2622 16.4539 11.1481L11.6539 6.34809C11.542 6.2362 11.4092 6.14745 11.263 6.0869C11.1168 6.02635 10.9601 5.99518 10.8019 5.99518C10.6437 5.99518 10.487 6.02635 10.3408 6.0869C10.1946 6.14745 10.0618 6.2362 9.9499 6.34809C9.83802 6.45997 9.74926 6.5928 9.68871 6.73899C9.62816 6.88517 9.597 7.04185 9.597 7.20008C9.597 7.35831 9.62816 7.515 9.68871 7.66118C9.74926 7.80737 9.83802 7.94019 9.9499 8.05208L12.7099 10.8001H1.20195C0.883689 10.8001 0.578466 10.9265 0.353423 11.1515C0.128381 11.3766 0.00195313 11.6818 0.00195312 12.0001C0.00195313 12.3183 0.128381 12.6235 0.353423 12.8486C0.578466 13.0736 0.883689 13.2001 1.20195 13.2001H12.7099ZM12.0019 0.000119632C9.75921 -0.00989286 7.55861 0.608772 5.64969 1.78594C3.74076 2.96311 2.19993 4.65167 1.20195 6.66009C1.05873 6.94652 1.03517 7.27811 1.13643 7.58192C1.2377 7.88573 1.45551 8.13686 1.74194 8.28008C2.02838 8.42329 2.35997 8.44686 2.66378 8.34559C2.96758 8.24432 3.21872 8.02651 3.36194 7.74008C4.12056 6.20807 5.27453 4.90644 6.70458 3.96968C8.13463 3.03293 9.78889 2.49505 11.4964 2.41162C13.2039 2.32819 14.9027 2.70224 16.4173 3.49511C17.9319 4.28799 19.2072 5.47093 20.1116 6.92168C21.0159 8.37243 21.5165 10.0384 21.5615 11.7473C21.6065 13.4563 21.1944 15.1463 20.3677 16.6426C19.5409 18.139 18.3296 19.3874 16.8589 20.2589C15.3882 21.1304 13.7114 21.5934 12.0019 21.6C10.2126 21.6078 8.45729 21.1109 6.93755 20.1663C5.4178 19.2218 4.19516 17.8679 3.40994 16.26C3.26672 15.9736 3.01558 15.7558 2.71178 15.6545C2.40797 15.5533 2.07638 15.5768 1.78994 15.72C1.50351 15.8633 1.2857 16.1144 1.18443 16.4182C1.08317 16.722 1.10673 17.0536 1.24995 17.34C2.20134 19.2546 3.64696 20.8803 5.43729 22.0489C7.22762 23.2174 9.29764 23.8865 11.4332 23.9868C13.5688 24.0871 15.6925 23.615 17.5844 22.6194C19.4764 21.6238 21.0681 20.1408 22.1947 18.3238C23.3214 16.5068 23.9422 14.4218 23.9928 12.2845C24.0435 10.1471 23.5222 8.03503 22.4829 6.16669C21.4436 4.29834 19.9241 2.74159 18.0814 1.65744C16.2387 0.573291 14.1398 0.00112337 12.0019 0.000119632Z" fill="#1877F2"/>
</svg>
