<svg width="24" height="24" viewBox="0 0 24 24" fill="none" xmlns="http://www.w3.org/2000/svg">
<path d="M4.02695 0.5C1.79595 0.5 0.00195312 2.294 0.00195312 4.525V19.475C0.00195312 21.706 1.79595 23.5 4.02695 23.5H16.102L23.002 16.6V4.525C23.002 2.294 21.208 0.5 18.977 0.5H4.02695ZM4.31445 2.8H18.6895C19.2232 2.8 19.7351 3.01203 20.1125 3.38945C20.4899 3.76686 20.702 4.27875 20.702 4.8125V15.45H18.977C16.746 15.45 14.952 17.244 14.952 19.475V21.2H4.31445C3.7807 21.2 3.26882 20.988 2.8914 20.6106C2.51398 20.2331 2.30195 19.7212 2.30195 19.1875V4.8125C2.30195 4.27875 2.51398 3.76686 2.8914 3.38945C3.26882 3.01203 3.7807 2.8 4.31445 2.8ZM14.308 5.9855C14.124 5.9855 13.94 6.0085 13.7675 6.0545C12.6865 6.3535 12.077 7.4575 12.353 8.55C12.4105 8.7225 12.491 8.895 12.5945 9.056L16.309 8.044C16.309 7.8485 16.286 7.653 16.24 7.4575C15.9985 6.595 15.205 5.9855 14.308 5.9855ZM7.09745 7.975C6.90195 7.975 6.72945 7.975 6.55695 8.0325C5.48745 8.3315 4.85495 9.4355 5.14245 10.505C5.17695 10.689 5.28045 10.85 5.38395 11.034L9.09845 10.022C9.09845 9.8265 9.07545 9.631 9.02945 9.447C8.91695 9.02174 8.6659 8.64613 8.316 8.37954C7.9661 8.11295 7.53732 7.9706 7.09745 7.975ZM16.93 11.149L6.43045 14.0355C7.17609 14.8983 8.15019 15.5331 9.24067 15.8668C10.3311 16.2004 11.4937 16.2194 12.5945 15.9215C13.6928 15.6142 14.6822 15.0034 15.4491 14.1592C16.216 13.315 16.7292 12.2717 16.93 11.149Z" fill="#1877F2"/>
</svg>
