<svg width="20" height="23" viewBox="0 0 20 23" fill="none" xmlns="http://www.w3.org/2000/svg">
<path d="M3.32832 6.86783H16.5272C16.8628 6.86779 17.1945 6.94033 17.4995 7.0805C17.8045 7.22066 18.0756 7.42511 18.2942 7.67985C18.5128 7.93459 18.6737 8.23359 18.7659 8.55634C18.8581 8.87909 18.8794 9.21797 18.8284 9.54973L17.3676 19.0388C17.2408 19.8635 16.8229 20.6155 16.1896 21.1587C15.5563 21.7018 14.7494 22.0003 13.9151 22.0001H5.93922C5.10508 22.0001 4.29851 21.7014 3.66546 21.1583C3.0324 20.6151 2.61469 19.8633 2.4879 19.0388L1.02705 9.54973C0.97603 9.21797 0.997355 8.87909 1.08956 8.55634C1.18177 8.23359 1.34269 7.93459 1.56127 7.67985C1.77986 7.42511 2.05094 7.22066 2.35595 7.0805C2.66095 6.94033 2.99265 6.86779 3.32832 6.86783Z" fill="#1877F2" stroke="#1877F2" stroke-width="2" stroke-linecap="round" stroke-linejoin="round"/>
<path fill-rule="evenodd" clip-rule="evenodd" d="M9.9264 2.09524C9.27809 2.09524 8.65634 2.35278 8.19792 2.8112C7.7395 3.26962 7.48196 3.89138 7.48196 4.53968V10.3598C7.48196 10.9384 7.01292 11.4074 6.43434 11.4074C5.85575 11.4074 5.38672 10.9384 5.38672 10.3598V4.53968C5.38672 3.33568 5.865 2.181 6.71636 1.32964C7.56772 0.478287 8.7224 0 9.9264 0C11.1304 0 12.2851 0.478287 13.1364 1.32964C13.9878 2.181 14.4661 3.33568 14.4661 4.53968V10.3598C14.4661 10.9384 13.997 11.4074 13.4185 11.4074C12.8399 11.4074 12.3708 10.9384 12.3708 10.3598V4.53968C12.3708 3.89138 12.1133 3.26962 11.6549 2.8112C11.1965 2.35278 10.5747 2.09524 9.9264 2.09524Z" fill="#1877F2"/>
</svg>
