<svg width="24" height="24" viewBox="0 0 24 24" fill="none" xmlns="http://www.w3.org/2000/svg">
<path d="M17.8908 10.7222C18.3253 10.7222 18.747 10.7733 19.1686 10.8372V4.67833L9.58529 0.5L0.00195312 4.67833V10.9522C0.00195312 16.7533 4.09084 22.1839 9.58529 23.5C10.2881 23.3339 10.9653 23.0911 11.6297 22.7972C10.7481 21.545 10.2242 20.0244 10.2242 18.3889C10.2242 14.1594 13.6614 10.7222 17.8908 10.7222Z" fill="#1877F2"/>
<path d="M17.8904 13.278C15.0665 13.278 12.7793 15.5653 12.7793 18.3891C12.7793 21.213 15.0665 23.5003 17.8904 23.5003C20.7143 23.5003 23.0015 21.213 23.0015 18.3891C23.0015 15.5653 20.7143 13.278 17.8904 13.278ZM17.8904 15.0414C18.6826 15.0414 19.3215 15.693 19.3215 16.4725C19.3215 17.2519 18.6699 17.9036 17.8904 17.9036C17.111 17.9036 16.4593 17.2519 16.4593 16.4725C16.4593 15.693 17.0982 15.0414 17.8904 15.0414ZM17.8904 21.903C16.7021 21.903 15.6671 21.3153 15.0282 20.408C15.0921 19.488 16.9576 19.028 17.8904 19.028C18.8232 19.028 20.6887 19.488 20.7526 20.408C20.1137 21.3153 19.0787 21.903 17.8904 21.903Z" fill="#1877F2"/>
</svg>
