<svg width="22" height="22" viewBox="0 0 22 22" fill="none" xmlns="http://www.w3.org/2000/svg">
<path d="M11.002 21C16.5248 21 21.002 16.5228 21.002 11C21.002 5.47715 16.5248 1 11.002 1C5.47911 1 1.00195 5.47715 1.00195 11C1.00195 16.5228 5.47911 21 11.002 21Z" stroke="#1877F2" stroke-width="1.7" stroke-linecap="round" stroke-linejoin="round"/>
<path d="M18.502 17.2503C17.6745 14.4078 14.502 13.4691 11.002 13.4691C7.5932 13.4691 4.41445 14.5553 3.50195 17.2503" stroke="#1877F2" stroke-width="1.7" stroke-linecap="round" stroke-linejoin="round"/>
<path fill-rule="evenodd" clip-rule="evenodd" d="M11.002 3.5C11.9965 3.5 12.9503 3.89509 13.6536 4.59835C14.3569 5.30161 14.752 6.25544 14.752 7.25V9.75C14.752 10.7446 14.3569 11.6984 13.6536 12.4017C12.9503 13.1049 11.9965 13.5 11.002 13.5C10.0074 13.5 9.05356 13.1049 8.3503 12.4017C7.64704 11.6984 7.25195 10.7446 7.25195 9.75V7.25C7.25195 6.25544 7.64704 5.30161 8.3503 4.59835C9.05356 3.89509 10.0074 3.5 11.002 3.5Z" stroke="#1877F2" stroke-width="1.7" stroke-linecap="round" stroke-linejoin="round"/>
</svg>
