<svg width="25" height="24" viewBox="0 0 25 24" fill="none" xmlns="http://www.w3.org/2000/svg">
<g clip-path="url(#clip0_405_10551)">
<path d="M3.27435 3.99959C2.37075 3.99959 1.63875 4.71599 1.63875 5.60039V18.3996C1.63875 19.284 2.37075 20.0004 3.27435 20.0004H20.7296C21.6332 20.0004 22.3652 19.284 22.3652 18.3996V5.60039C22.3652 4.71599 21.6332 3.99959 20.7296 3.99959H3.27435ZM20.7296 2.39999C22.5368 2.39999 24.002 3.83279 24.002 5.60039V18.3996C24.002 20.1672 22.5368 21.6 20.7296 21.6H3.27435C1.46715 21.6 0.00195312 20.1672 0.00195312 18.3996V5.60039C0.00195312 3.83279 1.46715 2.39999 3.27435 2.39999H20.7296ZM9.80235 15.7596H4.80195C4.69564 15.7583 4.59012 15.778 4.49143 15.8176C4.39273 15.8571 4.30281 15.9158 4.2268 15.9901C4.15078 16.0644 4.09017 16.153 4.04844 16.2508C4.0067 16.3486 3.98465 16.4537 3.98355 16.56C3.98355 17.0016 4.34955 17.3604 4.80195 17.3604H9.80235C9.90857 17.3615 10.014 17.3417 10.1125 17.3021C10.2111 17.2624 10.3008 17.2038 10.3767 17.1295C10.4526 17.0551 10.5131 16.9666 10.5548 16.8689C10.5964 16.7712 10.6185 16.6662 10.6196 16.56C10.6185 16.4538 10.5964 16.3488 10.5548 16.2511C10.5131 16.1534 10.4526 16.0649 10.3767 15.9905C10.3008 15.9162 10.2111 15.8576 10.1125 15.8179C10.014 15.7783 9.90857 15.7585 9.80235 15.7596ZM16.502 6.39959C14.6732 6.39959 13.184 7.82879 13.184 9.59999C13.184 10.5276 13.592 11.3616 14.2448 11.946C13.0088 12.6756 12.1844 13.9896 12.1844 15.4908C12.1844 15.9192 12.2516 16.3404 12.3824 16.7424C12.5204 17.1624 12.9812 17.3952 13.4108 17.2608C13.5121 17.2304 13.6065 17.1802 13.6882 17.1129C13.77 17.0457 13.8375 16.9629 13.8869 16.8692C13.9362 16.7756 13.9665 16.6731 13.9758 16.5677C13.9851 16.4622 13.9733 16.356 13.9412 16.2552C13.8609 16.0084 13.8204 15.7503 13.8212 15.4908C13.8212 14.0808 15.0176 12.9312 16.502 12.9312C17.9864 12.9312 19.184 14.0808 19.184 15.4908C19.184 15.6984 19.1588 15.9012 19.1084 16.098C19.0831 16.2008 19.0785 16.3077 19.0948 16.4124C19.1112 16.517 19.1482 16.6174 19.2037 16.7076C19.2592 16.7978 19.3321 16.8761 19.4181 16.9379C19.5041 16.9997 19.6015 17.0438 19.7048 17.0676C19.9135 17.1199 20.1344 17.0881 20.3198 16.979C20.5053 16.8699 20.6404 16.6923 20.696 16.4844C20.7788 16.1604 20.8196 15.828 20.8196 15.4908C20.8196 13.9896 19.9952 12.6756 18.7592 11.9436C19.412 11.3616 19.82 10.5276 19.82 9.59999C19.82 7.82879 18.332 6.39959 16.502 6.39959ZM9.80235 11.5596H4.80195C4.69564 11.5583 4.59012 11.578 4.49143 11.6176C4.39273 11.6571 4.30281 11.7158 4.2268 11.7901C4.15078 11.8644 4.09017 11.953 4.04844 12.0508C4.0067 12.1486 3.98465 12.2537 3.98355 12.36C3.98355 12.8016 4.34955 13.1604 4.80195 13.1604H9.80235C9.90857 13.1615 10.014 13.1417 10.1125 13.1021C10.2111 13.0624 10.3008 13.0038 10.3767 12.9295C10.4526 12.8551 10.5131 12.7666 10.5548 12.6689C10.5964 12.5712 10.6185 12.4662 10.6196 12.36C10.6185 12.2538 10.5964 12.1488 10.5548 12.0511C10.5131 11.9534 10.4526 11.8649 10.3767 11.7905C10.3008 11.7162 10.2111 11.6576 10.1125 11.6179C10.014 11.5783 9.90857 11.5585 9.80235 11.5596ZM16.502 8.00039C17.4344 8.00039 18.1844 8.72039 18.1844 9.59999C18.1844 10.4808 17.4344 11.1996 16.502 11.1996C15.5696 11.1996 14.8196 10.4796 14.8196 9.59999C14.8196 8.71919 15.5696 8.00039 16.502 8.00039ZM9.80235 7.35959H4.80195C4.69564 7.35833 4.59012 7.37803 4.49143 7.41759C4.39273 7.45714 4.30281 7.51576 4.2268 7.5901C4.15078 7.66445 4.09017 7.75304 4.04844 7.85083C4.0067 7.94862 3.98465 8.05368 3.98355 8.15999C3.98355 8.60159 4.34955 8.96039 4.80195 8.96039H9.80235C9.90857 8.9615 10.014 8.94168 10.1125 8.90205C10.2111 8.86243 10.3008 8.80378 10.3767 8.72945C10.4526 8.65513 10.5131 8.56658 10.5548 8.46888C10.5964 8.37117 10.6185 8.26621 10.6196 8.15999C10.6185 8.05378 10.5964 7.94882 10.5548 7.85111C10.5131 7.7534 10.4526 7.66486 10.3767 7.59053C10.3008 7.51621 10.2111 7.45756 10.1125 7.41793C10.014 7.37831 9.90857 7.35848 9.80235 7.35959Z" fill="#1877F2"/>
</g>
<defs>
<clipPath id="clip0_405_10551">
<rect width="24" height="24" fill="white" transform="translate(0.00195312)"/>
</clipPath>
</defs>
</svg>
