<svg width="24" height="22" viewBox="0 0 24 22" fill="none" xmlns="http://www.w3.org/2000/svg">
<path fill-rule="evenodd" clip-rule="evenodd" d="M13.1046 5.77005C13.4986 5.54062 13.8075 5.18374 13.9831 4.75511C14.1588 4.32648 14.1912 3.85022 14.0754 3.40066C13.9596 2.9511 13.7021 2.55355 13.3431 2.27005C12.9841 1.98655 12.5437 1.83306 12.0908 1.83353C11.6378 1.834 11.1978 1.98841 10.8393 2.27266C10.4808 2.55691 10.2241 2.955 10.1092 3.40479C9.99432 3.85459 10.0277 4.33079 10.2042 4.75905C10.3806 5.18731 10.6903 5.54355 11.0847 5.77216L11.0744 5.7911C10.4028 7.23008 9.46976 9.29117 8.02913 10.0649C6.84587 10.6996 5.14789 10.3807 3.8867 10.1428C3.86647 9.84835 3.76627 9.56565 3.59746 9.32674C3.42865 9.08784 3.19799 8.90228 2.93166 8.79114C2.66533 8.67999 2.37399 8.64771 2.09069 8.69795C1.8074 8.74818 1.54348 8.87893 1.3289 9.07536C1.11432 9.27178 0.957664 9.52602 0.876702 9.80922C0.795739 10.0924 0.793714 10.3932 0.870857 10.6776C0.948 10.9619 1.10122 11.2183 1.31314 11.4178C1.52505 11.6172 1.78718 11.7517 2.06977 11.806L5.09252 19.8166C5.31669 20.4105 5.71053 20.9209 6.22235 21.2809C6.73417 21.6408 7.34004 21.8335 7.96043 21.8335H16.2248C16.8452 21.8335 17.4511 21.6408 17.9629 21.2809C18.4747 20.9209 18.8685 20.4105 19.0927 19.8166L22.1144 11.806C22.3952 11.7523 22.656 11.6194 22.8673 11.4222C23.0787 11.225 23.2325 10.9713 23.3113 10.6894C23.3901 10.4076 23.391 10.1088 23.3137 9.82645C23.2364 9.54414 23.0841 9.28951 22.8738 9.09108C22.6635 8.89265 22.4035 8.75826 22.123 8.70297C21.8425 8.64769 21.5525 8.67369 21.2856 8.77806C21.0186 8.88244 20.7853 9.06106 20.6117 9.29392C20.4381 9.52678 20.3311 9.80467 20.3026 10.0965C19.0117 10.268 17.3476 10.487 16.1561 9.84803C14.7442 9.09012 13.7978 7.17113 13.1046 5.77005ZM12.1182 8.26168C12.9057 9.57328 13.8501 10.9849 15.2066 11.7144C16.5673 12.4439 18.2417 12.407 19.7387 12.2754L17.1804 19.0556C17.1058 19.2535 16.9746 19.4237 16.804 19.5438C16.6335 19.6638 16.4316 19.7281 16.2248 19.7282H7.96043C7.75366 19.7281 7.55174 19.6638 7.3812 19.5438C7.21066 19.4237 7.07945 19.2535 7.0048 19.0556L4.48141 12.3681C5.95689 12.5618 7.62617 12.6565 8.97861 11.9302C10.3916 11.1723 11.3369 9.64381 12.1182 8.26168Z" fill="#1877F2"/>
</svg>
