<svg width="41" height="41" viewBox="0 0 41 41" fill="none" xmlns="http://www.w3.org/2000/svg">
<path d="M27.625 10.7031H2.6875C1.97887 10.7031 1.29927 10.9846 0.798199 11.4857C0.297125 11.9868 0.015625 12.6664 0.015625 13.375V38.3125C0.015625 39.0211 0.297125 39.7007 0.798199 40.2018C1.29927 40.7029 1.97887 40.9844 2.6875 40.9844H27.625C28.3336 40.9844 29.0132 40.7029 29.5143 40.2018C30.0154 39.7007 30.2969 39.0211 30.2969 38.3125V13.375C30.2969 12.6664 30.0154 11.9868 29.5143 11.4857C29.0132 10.9846 28.3336 10.7031 27.625 10.7031ZM28.5156 38.3125C28.5156 38.5487 28.4218 38.7752 28.2548 38.9423C28.0877 39.1093 27.8612 39.2031 27.625 39.2031H2.6875C2.45129 39.2031 2.22476 39.1093 2.05773 38.9423C1.89071 38.7752 1.79688 38.5487 1.79688 38.3125V13.375C1.79688 13.1388 1.89071 12.9123 2.05773 12.7452C2.22476 12.5782 2.45129 12.4844 2.6875 12.4844H27.625C27.8612 12.4844 28.0877 12.5782 28.2548 12.7452C28.4218 12.9123 28.5156 13.1388 28.5156 13.375V38.3125ZM23.1719 0.90625C23.1719 0.670042 23.2657 0.443508 23.4327 0.276483C23.5998 0.109459 23.8263 0.015625 24.0625 0.015625H27.625C27.8612 0.015625 28.0877 0.109459 28.2548 0.276483C28.4218 0.443508 28.5156 0.670042 28.5156 0.90625C28.5156 1.14246 28.4218 1.36899 28.2548 1.53602C28.0877 1.70304 27.8612 1.79688 27.625 1.79688H24.0625C23.8263 1.79688 23.5998 1.70304 23.4327 1.53602C23.2657 1.36899 23.1719 1.14246 23.1719 0.90625ZM40.9844 2.6875V4.46875C40.9844 4.70496 40.8905 4.93149 40.7235 5.09852C40.5565 5.26554 40.33 5.35938 40.0938 5.35938C39.8575 5.35938 39.631 5.26554 39.464 5.09852C39.297 4.93149 39.2031 4.70496 39.2031 4.46875V2.6875C39.2031 2.45129 39.1093 2.22476 38.9423 2.05773C38.7752 1.89071 38.5487 1.79688 38.3125 1.79688H36.5312C36.295 1.79688 36.0685 1.70304 35.9015 1.53602C35.7345 1.36899 35.6406 1.14246 35.6406 0.90625C35.6406 0.670042 35.7345 0.443508 35.9015 0.276483C36.0685 0.109459 36.295 0.015625 36.5312 0.015625H38.3125C39.0211 0.015625 39.7007 0.297125 40.2018 0.798199C40.7029 1.29927 40.9844 1.97887 40.9844 2.6875ZM40.9844 13.375V16.9375C40.9844 17.1737 40.8905 17.4002 40.7235 17.5673C40.5565 17.7343 40.33 17.8281 40.0938 17.8281C39.8575 17.8281 39.631 17.7343 39.464 17.5673C39.297 17.4002 39.2031 17.1737 39.2031 16.9375V13.375C39.2031 13.1388 39.297 12.9123 39.464 12.7452C39.631 12.5782 39.8575 12.4844 40.0938 12.4844C40.33 12.4844 40.5565 12.5782 40.7235 12.7452C40.8905 12.9123 40.9844 13.1388 40.9844 13.375ZM40.9844 25.8438V27.625C40.9844 28.3336 40.7029 29.0132 40.2018 29.5143C39.7007 30.0154 39.0211 30.2969 38.3125 30.2969H36.5312C36.295 30.2969 36.0685 30.203 35.9015 30.036C35.7345 29.869 35.6406 29.6425 35.6406 29.4062C35.6406 29.17 35.7345 28.9435 35.9015 28.7765C36.0685 28.6095 36.295 28.5156 36.5312 28.5156H38.3125C38.5487 28.5156 38.7752 28.4218 38.9423 28.2548C39.1093 28.0877 39.2031 27.8612 39.2031 27.625V25.8438C39.2031 25.6075 39.297 25.381 39.464 25.214C39.631 25.047 39.8575 24.9531 40.0938 24.9531C40.33 24.9531 40.5565 25.047 40.7235 25.214C40.8905 25.381 40.9844 25.6075 40.9844 25.8438ZM10.7031 4.46875V2.6875C10.7031 1.97887 10.9846 1.29927 11.4857 0.798199C11.9868 0.297125 12.6664 0.015625 13.375 0.015625H15.1562C15.3925 0.015625 15.619 0.109459 15.786 0.276483C15.953 0.443508 16.0469 0.670042 16.0469 0.90625C16.0469 1.14246 15.953 1.36899 15.786 1.53602C15.619 1.70304 15.3925 1.79688 15.1562 1.79688H13.375C13.1388 1.79688 12.9123 1.89071 12.7452 2.05773C12.5782 2.22476 12.4844 2.45129 12.4844 2.6875V4.46875C12.4844 4.70496 12.3905 4.93149 12.2235 5.09852C12.0565 5.26554 11.83 5.35938 11.5938 5.35938C11.3575 5.35938 11.131 5.26554 10.964 5.09852C10.797 4.93149 10.7031 4.70496 10.7031 4.46875Z" fill="#2C50ED"/>
</svg>
