<svg width="36" height="36" viewBox="0 0 36 36" fill="none" xmlns="http://www.w3.org/2000/svg">
<g clip-path="url(#clip0_405_11680)">
<path d="M23 26C23 26.2652 22.8946 26.5196 22.7071 26.7071C22.5196 26.8946 22.2652 27 22 27H8C7.78 27 7.57 27.2 7.39 27.33L4 30V14C4 13.7348 4.10536 13.4804 4.29289 13.2929C4.48043 13.1054 4.73478 13 5 13H8.86V11H5C4.20435 11 3.44129 11.3161 2.87868 11.8787C2.31607 12.4413 2 13.2044 2 14V32C2.00149 32.1857 2.05467 32.3674 2.15358 32.5245C2.25249 32.6817 2.39322 32.8083 2.56 32.89C2.72068 32.9631 2.89784 32.9923 3.07347 32.9747C3.24911 32.9572 3.41697 32.8934 3.56 32.79L8.71 29H22.15C22.529 29.0112 22.9063 28.9445 23.2585 28.8039C23.6106 28.6634 23.9302 28.4521 24.1974 28.183C24.4646 27.914 24.6736 27.5929 24.8117 27.2398C24.9498 26.8867 25.0139 26.5089 25 26.13V25H23V26Z" fill="#2C50ED"/>
<path d="M31 4H14C13.2044 4 12.4413 4.31607 11.8787 4.87868C11.3161 5.44129 11 6.20435 11 7V19C11 19.7956 11.3161 20.5587 11.8787 21.1213C12.4413 21.6839 13.2044 22 14 22H27.55L32.33 25.71C32.4721 25.8151 32.6395 25.8806 32.8152 25.8999C32.9908 25.9192 33.1685 25.8917 33.33 25.82C33.5002 25.739 33.644 25.6115 33.7448 25.4522C33.8457 25.293 33.8995 25.1085 33.9 24.92V7C33.9004 6.22138 33.5981 5.47309 33.057 4.91327C32.5158 4.35345 31.7782 4.02595 31 4ZM32 22.94L28.5 20.21C28.3255 20.0745 28.1109 20.0007 27.89 20H14C13.7348 20 13.4804 19.8946 13.2929 19.7071C13.1054 19.5196 13 19.2652 13 19V7C13 6.73478 13.1054 6.48043 13.2929 6.29289C13.4804 6.10536 13.7348 6 14 6H31C31.2673 6.02426 31.5165 6.14542 31.7007 6.34065C31.8849 6.53589 31.9913 6.79173 32 7.06V22.94Z" fill="#2C50ED"/>
</g>
<defs>
<clipPath id="clip0_405_11680">
<rect width="36" height="36" fill="white"/>
</clipPath>
</defs>
</svg>
