<svg width="29" height="26" viewBox="0 0 29 26" fill="none" xmlns="http://www.w3.org/2000/svg">
<path fill-rule="evenodd" clip-rule="evenodd" d="M15.7752 5.41417C16.2716 5.13265 16.6607 4.69473 16.8819 4.16878C17.1032 3.64282 17.144 3.05842 16.9982 2.50679C16.8523 1.95515 16.5279 1.46733 16.0757 1.11946C15.6234 0.771587 15.0686 0.583242 14.4981 0.583822C13.9275 0.584401 13.3731 0.773872 12.9215 1.12266C12.47 1.47145 12.1466 1.95993 12.0018 2.51186C11.8571 3.06379 11.8992 3.6481 12.1215 4.17361C12.3438 4.69912 12.7338 5.13624 13.2307 5.41675L13.2177 5.44C12.3717 7.20571 11.1963 9.73479 9.3815 10.6842C7.89092 11.463 5.75192 11.0717 4.16317 10.7798C4.13768 10.4185 4.01145 10.0716 3.79879 9.77844C3.58614 9.48529 3.29558 9.2576 2.96008 9.12122C2.62457 8.98484 2.25756 8.94523 1.90068 9.00687C1.54381 9.06851 1.21135 9.22895 0.941037 9.46997C0.670723 9.711 0.473376 10.023 0.371385 10.3705C0.269394 10.718 0.266843 11.0871 0.364023 11.436C0.461202 11.7849 0.65422 12.0995 0.921176 12.3443C1.18813 12.589 1.51834 12.754 1.87433 12.8206L5.68217 22.6502C5.96456 23.3789 6.46069 24.0052 7.10545 24.4469C7.7502 24.8885 8.51343 25.1249 9.29496 25.125H19.7058C20.4873 25.1249 21.2505 24.8885 21.8953 24.4469C22.5401 24.0052 23.0362 23.3789 23.3186 22.6502L27.1251 12.8206C27.4789 12.7547 27.8073 12.5917 28.0736 12.3497C28.3399 12.1077 28.5336 11.7964 28.6329 11.4505C28.7322 11.1047 28.7332 10.738 28.6359 10.3916C28.5385 10.0452 28.3466 9.73275 28.0817 9.48927C27.8168 9.24578 27.4893 9.08088 27.1359 9.01304C26.7825 8.9452 26.4173 8.9771 26.081 9.10518C25.7447 9.23325 25.4508 9.45243 25.2321 9.73816C25.0134 10.0239 24.8786 10.3649 24.8428 10.7229C23.2165 10.9335 21.1202 11.2021 19.6192 10.4181C17.8406 9.48808 16.6484 7.13338 15.7752 5.41417ZM14.5327 8.47154C15.5247 10.081 16.7143 11.8131 18.4232 12.7082C20.1372 13.6033 22.2465 13.5581 24.1323 13.3967L20.9096 21.7163C20.8156 21.9592 20.6503 22.168 20.4355 22.3153C20.2206 22.4626 19.9663 22.5415 19.7058 22.5417H9.29496C9.03447 22.5415 8.78012 22.4626 8.56528 22.3153C8.35044 22.168 8.18516 21.9592 8.09112 21.7163L4.91233 13.5103C6.77104 13.748 8.87387 13.8643 10.5776 12.973C12.3575 12.043 13.5484 10.1675 14.5327 8.47154Z" fill="#2C50ED"/>
</svg>
