<svg width="49" height="49" viewBox="0 0 49 49" fill="none" xmlns="http://www.w3.org/2000/svg">
<path d="M39.0746 25.1582C38.4098 25.1582 37.7598 25.3553 37.207 25.7247C36.6542 26.0941 36.2234 26.6191 35.9689 27.2333C35.7145 27.8476 35.6479 28.5235 35.7776 29.1755C35.9074 29.8276 36.2275 30.4266 36.6976 30.8967C37.1678 31.3669 37.7667 31.687 38.4188 31.8167C39.0709 31.9464 39.7468 31.8799 40.361 31.6254C40.9753 31.371 41.5003 30.9401 41.8697 30.3873C42.239 29.8345 42.4362 29.1846 42.4362 28.5197C42.4351 27.6285 42.0805 26.7742 41.4504 26.144C40.8202 25.5138 39.9658 25.1593 39.0746 25.1582ZM39.0746 31.1753C38.5496 31.1753 38.0364 31.0196 37.5999 30.728C37.1634 30.4363 36.8232 30.0217 36.6223 29.5367C36.4214 29.0517 36.3688 28.518 36.4712 28.0031C36.5736 27.4882 36.8264 27.0152 37.1976 26.644C37.5689 26.2727 38.0418 26.0199 38.5567 25.9175C39.0716 25.815 39.6053 25.8676 40.0904 26.0685C40.5754 26.2694 40.99 26.6096 41.2817 27.0461C41.5733 27.4826 41.729 27.9958 41.729 28.5208C41.7292 28.8695 41.6607 29.2148 41.5273 29.5369C41.394 29.8591 41.1985 30.1519 40.952 30.3985C40.7055 30.6451 40.4128 30.8407 40.0907 30.9742C39.7686 31.1077 39.4233 31.1764 39.0746 31.1764V31.1753ZM39.9241 28.5208C39.9241 28.6888 39.8743 28.853 39.781 28.9927C39.6876 29.1325 39.555 29.2413 39.3998 29.3057C39.2446 29.37 39.0738 29.3868 38.909 29.354C38.7442 29.3213 38.5928 29.2404 38.474 29.1216C38.3552 29.0028 38.2743 28.8514 38.2415 28.6866C38.2087 28.5219 38.2255 28.3511 38.2898 28.1958C38.3541 28.0406 38.463 27.9079 38.6027 27.8146C38.7424 27.7212 38.9066 27.6714 39.0746 27.6714C39.2999 27.6714 39.516 27.7609 39.6753 27.9202C39.8346 28.0795 39.9241 28.2955 39.9241 28.5208ZM14.5113 28.5208C14.5113 27.8559 14.3141 27.206 13.9447 26.6532C13.5753 26.1004 13.0503 25.6696 12.4361 25.4152C11.8218 25.1608 11.1459 25.0942 10.4939 25.2239C9.8418 25.3536 9.24283 25.6738 8.77271 26.1439C8.30259 26.614 7.98244 27.213 7.85273 27.8651C7.72301 28.5171 7.78958 29.193 8.04399 29.8073C8.29841 30.4215 8.72926 30.9465 9.28205 31.3159C9.83484 31.6853 10.4848 31.8824 11.1496 31.8825C12.0408 31.8813 12.8952 31.5268 13.5254 30.8966C14.1556 30.2664 14.5102 29.412 14.5113 28.5208ZM11.1496 31.1753C10.6246 31.1753 10.1114 31.0196 9.67492 30.7279C9.23842 30.4362 8.89821 30.0217 8.69732 29.5366C8.49642 29.0516 8.44386 28.5179 8.54629 28.003C8.64871 27.4881 8.90152 27.0151 9.27274 26.6439C9.64396 26.2727 10.1169 26.0199 10.6318 25.9175C11.1467 25.815 11.6804 25.8676 12.1655 26.0685C12.6505 26.2694 13.0651 26.6096 13.3567 27.0461C13.6484 27.4826 13.8041 27.9958 13.8041 28.5208C13.8043 28.8695 13.7357 29.2148 13.6024 29.537C13.4691 29.8592 13.2735 30.1519 13.027 30.3985C12.7805 30.6451 12.4878 30.8408 12.1657 30.9742C11.8436 31.1077 11.4983 31.1764 11.1496 31.1764V31.1753ZM44.2104 29.0868C44.2935 28.3857 44.2321 27.675 44.0299 26.9985C43.8277 26.3221 43.489 25.6942 43.0347 25.1538C42.5805 24.6133 42.0203 24.1716 41.3888 23.856C40.7572 23.5404 40.0677 23.3575 39.3628 23.3187C38.6578 23.2799 37.9524 23.3859 37.29 23.6303C36.6276 23.8747 36.0223 24.2522 35.5115 24.7396C35.0007 25.2269 34.5951 25.8138 34.3199 26.4639C34.0446 27.1141 33.9055 27.8137 33.9112 28.5197C33.9104 29.3028 34.0887 30.0757 34.4325 30.7793H15.7918C16.1474 30.0499 16.3261 29.2469 16.3136 28.4355C16.301 27.6241 16.0975 26.8271 15.7196 26.109C15.3416 25.3909 14.7998 24.772 14.1381 24.3022C13.4764 23.8325 12.7133 23.5253 11.9107 23.4055C11.1081 23.2856 10.2886 23.3565 9.5185 23.6123C8.74841 23.8682 8.04941 24.3018 7.47814 24.8782C6.90686 25.4545 6.47937 26.1573 6.2303 26.9296C5.98123 27.7019 5.91758 28.5221 6.04451 29.3235C3.59289 28.2935 2.00977 26.6084 2.00977 23.9434C2.00977 21.1828 10.3235 17.2999 15.6113 17.1172V20.3801C15.6113 21.0103 15.8616 21.6148 16.3073 22.0604C16.7529 22.506 17.3574 22.7564 17.9876 22.7564H22.5351C23.0967 22.7556 23.6397 22.5554 24.0675 22.1916C24.4953 21.8278 24.7801 21.3239 24.8711 20.7698C24.8711 20.7698 24.7161 18.6961 24.2191 18.3276L24.5452 18.0846L26.8874 20.7719H35.8935C42.0179 20.7698 46.9902 23.0133 46.9902 25.7739C46.9902 27.0481 45.9401 28.2044 44.2104 29.0868ZM11.9991 28.5197C11.9991 28.6877 11.9492 28.852 11.8559 28.9917C11.7626 29.1314 11.6299 29.2402 11.4747 29.3045C11.3195 29.3688 11.1487 29.3857 10.9839 29.3529C10.8191 29.3201 10.6677 29.2392 10.5489 29.1204C10.4301 29.0016 10.3492 28.8502 10.3165 28.6855C10.2837 28.5207 10.3005 28.3499 10.3648 28.1947C10.4291 28.0394 10.538 27.9068 10.6777 27.8134C10.8174 27.7201 10.9816 27.6703 11.1496 27.6703C11.2612 27.6703 11.3718 27.6923 11.4749 27.735C11.5781 27.7778 11.6717 27.8405 11.7506 27.9194C11.8295 27.9984 11.8921 28.0922 11.9347 28.1954C11.9773 28.2986 11.9992 28.4091 11.9991 28.5208V28.5197Z" fill="#2C50ED"/>
</svg>
