<svg width="31" height="28" viewBox="0 0 31 28" fill="none" xmlns="http://www.w3.org/2000/svg">
<path d="M2.87086 1.77999L7.33086 6.23999C4.51178 8.05511 2.20776 10.5658 0.640859 13.53L0.380859 14L0.640859 14.48C4.01086 20.71 9.92086 24.48 16.4609 24.48C19.0135 24.4795 21.533 23.9017 23.8309 22.79L28.8309 27.79L30.5809 26.29L4.58086 0.289993L2.87086 1.77999ZM11.1709 10.08C10.2353 11.3994 9.79678 13.0073 9.93297 14.619C10.0692 16.2307 10.7713 17.7422 11.915 18.8859C13.0587 20.0296 14.5702 20.7317 16.1819 20.8679C17.7936 21.0041 19.4015 20.5656 20.7209 19.63L22.3209 21.23C20.4686 22.0217 18.4752 22.4299 16.4609 22.43C10.8309 22.43 5.71086 19.29 2.66086 14C4.12457 11.4082 6.23258 9.23819 8.78086 7.69999L11.1709 10.08Z" fill="#2C50ED"/>
</svg>
