<svg width="36" height="32" viewBox="0 0 36 32" fill="none" xmlns="http://www.w3.org/2000/svg">
<g clip-path="url(#clip0_405_11655)">
<path d="M22.2209 20.726C22.1428 20.7154 22.0633 20.7239 21.9893 20.7509C21.9152 20.7779 21.8489 20.8226 21.7959 20.881C21.7421 20.9384 21.7027 21.0078 21.6808 21.0834C21.6589 21.159 21.6552 21.2387 21.6699 21.316C21.9459 22.766 22.8749 24.756 25.7269 25.995C26.0649 26.141 26.5869 26.255 27.2489 26.398C29.7269 26.934 33.8709 27.832 34.889 31.63C34.906 31.6935 34.9354 31.753 34.9755 31.8051C35.0156 31.8573 35.0655 31.901 35.1225 31.9338C35.1795 31.9666 35.2423 31.9879 35.3075 31.9964C35.3727 32.005 35.439 32.0006 35.5024 31.9835C35.5659 31.9664 35.6255 31.937 35.6776 31.8969C35.7297 31.8569 35.7734 31.8069 35.8063 31.75C35.8391 31.693 35.8604 31.6301 35.8689 31.5649C35.8774 31.4997 35.873 31.4335 35.8559 31.37C34.6789 26.983 29.9839 25.966 27.4609 25.42C26.8769 25.293 26.3719 25.184 26.1249 25.076C24.4109 24.332 23.3039 23.228 22.8239 21.79C27.5859 22.144 29.7419 20.247 29.8369 20.161C29.8955 20.108 29.9407 20.0418 29.9687 19.9679C29.9968 19.8941 30.007 19.8146 29.9984 19.736C29.9898 19.6575 29.9627 19.5821 29.9193 19.516C29.876 19.45 29.8176 19.3951 29.7489 19.356C27.0009 17.786 27.0009 12.361 27.0009 10.318C27.0009 4.605 23.1529 0.0759989 18.2199 0.0049989C18.173 0.00343479 18.126 0.00243472 18.0789 0.0019989C13.0739 0.0299989 9.00095 4.564 9.00095 10.11C9.00095 12.153 9.00095 17.579 6.25295 19.148C6.18211 19.1891 6.1224 19.247 6.07899 19.3164C6.03558 19.3859 6.00981 19.4649 6.00389 19.5466C5.99798 19.6283 6.01211 19.7103 6.04506 19.7853C6.07801 19.8603 6.12877 19.9261 6.19295 19.977C6.33095 20.084 9.38095 22.418 13.1339 21.709C12.6319 23.087 11.5399 24.147 9.87595 24.87C9.63495 24.975 9.15495 25.09 8.59895 25.222C6.05895 25.826 1.32995 26.951 0.145948 31.369C0.128942 31.4325 0.124609 31.4987 0.133195 31.5639C0.141782 31.6291 0.16312 31.6919 0.195992 31.7488C0.26238 31.8638 0.371716 31.9477 0.499948 31.982C0.628181 32.0163 0.764805 31.9983 0.879764 31.932C0.994724 31.8656 1.0786 31.7562 1.11295 31.628C2.14195 27.784 6.32995 26.789 8.83095 26.193C9.45795 26.044 9.95295 25.926 10.2749 25.787C13.1269 24.548 14.0549 22.558 14.3319 21.108C14.3484 21.0231 14.3424 20.9353 14.3145 20.8534C14.2866 20.7715 14.2378 20.6983 14.1729 20.641C14.1086 20.5832 14.0303 20.5432 13.9458 20.525C13.8612 20.5068 13.7734 20.5109 13.6909 20.537C10.9839 21.389 8.48295 20.217 7.38995 19.567C10.0009 17.381 10.0009 12.35 10.0009 10.11C10.0009 5.113 13.6269 1.027 18.1209 0.999999L18.2269 1.006C22.6589 1.069 26.0009 5.072 26.0009 10.318C26.0009 12.559 26.0009 17.601 28.6229 19.787C27.7199 20.303 25.6609 21.138 22.2209 20.726Z" fill="#2C50ED"/>
</g>
<defs>
<clipPath id="clip0_405_11655">
<rect width="36" height="32" fill="white"/>
</clipPath>
</defs>
</svg>
