<svg width="38" height="38" viewBox="0 0 38 38" fill="none" xmlns="http://www.w3.org/2000/svg">
<path d="M32.0625 10.6875H26.8553C26.9132 10.6385 26.9726 10.591 27.029 10.5391C27.4798 10.1385 27.8431 9.64931 28.0962 9.10196C28.3494 8.55462 28.4868 7.96094 28.5 7.35804C28.5195 6.6985 28.404 6.04192 28.1606 5.42863C27.9171 4.81534 27.5509 4.25828 27.0844 3.79163C26.6179 3.32499 26.061 2.95862 25.4477 2.71501C24.8345 2.4714 24.178 2.35569 23.5184 2.375C22.9153 2.38799 22.3213 2.52534 21.7737 2.77846C21.2261 3.03158 20.7366 3.39501 20.3359 3.84601C19.7815 4.48859 19.3308 5.21378 19 5.99539C18.6692 5.21378 18.2185 4.48859 17.6641 3.84601C17.2634 3.39501 16.7739 3.03158 16.2263 2.77846C15.6787 2.52534 15.0847 2.38799 14.4816 2.375C13.822 2.35569 13.1655 2.4714 12.5523 2.71501C11.939 2.95862 11.3821 3.32499 10.9156 3.79163C10.4491 4.25828 10.0829 4.81534 9.83944 5.42863C9.59601 6.04192 9.4805 6.6985 9.5 7.35804C9.51319 7.96094 9.65064 8.55462 9.90376 9.10196C10.1569 9.64931 10.5202 10.1385 10.971 10.5391C11.0274 10.588 11.0868 10.6355 11.1447 10.6875H5.9375C5.30761 10.6875 4.70352 10.9377 4.25812 11.3831C3.81272 11.8285 3.5625 12.4326 3.5625 13.0625V17.8125C3.5625 18.4424 3.81272 19.0465 4.25812 19.4919C4.70352 19.9373 5.30761 20.1875 5.9375 20.1875V29.6875C5.9375 30.3174 6.18772 30.9215 6.63312 31.3669C7.07852 31.8123 7.68261 32.0625 8.3125 32.0625H29.6875C30.3174 32.0625 30.9215 31.8123 31.3669 31.3669C31.8123 30.9215 32.0625 30.3174 32.0625 29.6875V20.1875C32.6924 20.1875 33.2965 19.9373 33.7419 19.4919C34.1873 19.0465 34.4375 18.4424 34.4375 17.8125V13.0625C34.4375 12.4326 34.1873 11.8285 33.7419 11.3831C33.2965 10.9377 32.6924 10.6875 32.0625 10.6875ZM22.1172 5.41945C22.3052 5.21182 22.5341 5.0453 22.7896 4.93035C23.045 4.8154 23.3215 4.7545 23.6016 4.75148H23.6743C24.0026 4.75353 24.3272 4.82109 24.629 4.9502C24.9309 5.0793 25.2039 5.26736 25.4322 5.50334C25.6604 5.73932 25.8393 6.01849 25.9582 6.32448C26.0772 6.63047 26.1339 6.95713 26.125 7.28531C26.122 7.56541 26.0611 7.84186 25.9461 8.0973C25.8312 8.35274 25.6647 8.58166 25.457 8.76968C24.0484 10.0166 21.7105 10.4559 20.2617 10.6103C20.4398 9.03836 20.9297 6.7539 22.1172 5.41945ZM12.6038 5.47289C13.0639 5.01286 13.687 4.75307 14.3376 4.75H14.4103C14.6904 4.75302 14.9669 4.81392 15.2223 4.92886C15.4777 5.04381 15.7067 5.21033 15.8947 5.41797C17.1401 6.82515 17.5795 9.15859 17.7338 10.6014C16.291 10.453 13.9576 10.0077 12.5504 8.76226C12.3428 8.57424 12.1762 8.34532 12.0613 8.08988C11.9463 7.83444 11.8854 7.55799 11.8824 7.27789C11.8732 6.94425 11.9319 6.61222 12.0549 6.30195C12.1779 5.99167 12.3626 5.70961 12.5979 5.47289H12.6038ZM5.9375 13.0625H17.8125V17.8125H5.9375V13.0625ZM8.3125 20.1875H17.8125V29.6875H8.3125V20.1875ZM29.6875 29.6875H20.1875V20.1875H29.6875V29.6875ZM32.0625 17.8125H20.1875V13.0625H32.0625V17.8125Z" fill="#2C50ED"/>
</svg>
