<svg width="28" height="30" viewBox="0 0 28 30" fill="none" xmlns="http://www.w3.org/2000/svg">
<path d="M5.11763 0.00033466C5.02107 0.0025752 4.92535 0.0192965 4.8336 0.0499565C4.47196 0.171269 4.18008 0.510134 4.02353 1.07511C3.86698 1.64008 3.87856 2.39857 4.13077 3.16739C4.38298 3.9362 4.82215 4.55144 5.28158 4.90977C5.74106 5.26809 6.17522 5.36328 6.53692 5.24197C6.89856 5.12066 7.19031 4.78192 7.34679 4.21689C7.50334 3.65192 7.49183 2.89336 7.23955 2.12454C6.98734 1.35566 6.54824 0.740615 6.08875 0.382293C5.74415 0.113551 5.41382 -0.00723921 5.11763 0.00033466ZM16.9428 0.808192C16.7203 0.818443 16.5246 0.922387 16.4124 1.15711L15.5358 2.77276L13.8172 4.88228C13.8172 4.88228 10.3562 4.26018 9.1857 4.43418C8.94274 4.46992 8.70018 4.50837 8.45806 4.54955C8.22571 5.37589 7.69885 6.08992 6.90273 6.35696C6.16255 6.60527 5.38071 6.4028 4.73221 5.95359C4.43872 6.18283 4.16729 6.44857 3.92491 6.75864C2.72434 7.71582 2.2286 8.37442 1.21826 9.03863C1.41647 8.06813 1.90508 7.10096 2.44146 6.30427C2.52954 6.17349 3.18049 5.61512 3.27004 5.49426C3.75094 4.53408 2.72589 2.80319 1.76075 4.45873C1.66914 4.58794 1.28847 5.69125 1.1939 5.83613C0.256924 7.72091 -0.328252 8.95819 0.199062 10.8195C0.376247 11.4449 2.18629 10.4993 3.74985 9.37273C5.45156 11.8107 7.56641 12.5462 8.78851 13.4912C7.29272 18.9355 9.44859 23.1063 10.6707 27.0537L8.79668 29.4098C8.22655 30.1037 11.9284 30.266 12.1663 29.4588L12.662 27.2493C10.8084 21.3399 12.46 16.9537 13.7948 13.6868C17.3442 9.83173 21.203 8.31298 24.6535 5.27775L27.566 4.64866C28.2634 3.34831 28.2241 2.70636 26.6753 2.6444L23.7871 3.79321C20.1492 5.86995 14.4 7.2764 11.7971 10.1912C11.7395 9.27414 10.6785 7.10286 10.4533 6.3757C11.6988 6.5437 13.3894 6.65143 14.3521 6.20059C15.381 5.71873 16.5142 3.53694 16.5142 3.53694L17.7783 2.58688C18.8754 1.93017 17.7378 0.77189 16.9429 0.808323L16.9428 0.808192Z" fill="#2C50ED"/>
</svg>
