<svg width="51" height="52" viewBox="0 0 51 52" fill="none" xmlns="http://www.w3.org/2000/svg">
<path d="M17 28.1667C17 30.4652 17.8955 32.6696 19.4896 34.2949C21.0837 35.9202 23.2457 36.8333 25.5 36.8333C27.7543 36.8333 29.9163 35.9202 31.5104 34.2949C33.1045 32.6696 34 30.4652 34 28.1667C34 25.8681 33.1045 23.6637 31.5104 22.0384C29.9163 20.4131 27.7543 19.5 25.5 19.5C23.2457 19.5 21.0837 20.4131 19.4896 22.0384C17.8955 23.6637 17 25.8681 17 28.1667Z" stroke="#2C50ED" stroke-width="2" stroke-linecap="round" stroke-linejoin="round"/>
<path d="M18.0625 22.75L15.9375 17.3333H4.25L9.52 29.874C9.84794 30.654 10.3933 31.3187 11.0884 31.7855C11.7835 32.2523 12.5977 32.5008 13.43 32.5H18.0625M32.9375 22.75L35.0625 17.3333H46.75L41.48 29.874C41.1521 30.654 40.6067 31.3187 39.9116 31.7855C39.2165 32.2523 38.4023 32.5008 37.57 32.5H32.9375" stroke="#2C50ED" stroke-width="2" stroke-linecap="round" stroke-linejoin="round"/>
<path d="M19.2205 24.9878L20.924 30.1398H20.9911L22.6914 24.9878H23.9954L21.6879 31.5333H20.2241L17.9197 24.9878H19.2205ZM26.0432 24.9878V31.5333H24.8575V24.9878H26.0432ZM27.3272 31.5333V24.9878H29.7818C30.2846 24.9878 30.7065 25.0816 31.0474 25.2691C31.3904 25.4566 31.6493 25.7144 31.824 26.0425C32.0009 26.3685 32.0893 26.7393 32.0893 27.1547C32.0893 27.5745 32.0009 27.9474 31.824 28.2734C31.6472 28.5993 31.3862 28.8561 31.041 29.0436C30.6958 29.229 30.2708 29.3216 29.7658 29.3216H28.139V28.3469H29.606C29.9 28.3469 30.1408 28.2957 30.3283 28.1935C30.5158 28.0912 30.6543 27.9506 30.7438 27.7716C30.8354 27.5926 30.8812 27.387 30.8812 27.1547C30.8812 26.9225 30.8354 26.718 30.7438 26.5411C30.6543 26.3643 30.5147 26.2268 30.3251 26.1288C30.1376 26.0287 29.8958 25.9786 29.5996 25.9786H28.513V31.5333H27.3272Z" fill="#2C50ED"/>
</svg>
