<svg width="27" height="33" viewBox="0 0 27 33" fill="none" xmlns="http://www.w3.org/2000/svg">
<path d="M26.5 0.25H0.5V3.5L9.94125 10.585C7.07595 11.5298 4.70303 13.5737 3.34402 16.2673C1.985 18.9609 1.75111 22.084 2.69375 24.95C3.16011 26.3698 3.90181 27.6836 4.87642 28.8165C5.85103 29.9493 7.03943 30.8789 8.37363 31.552C9.70783 32.2252 11.1616 32.6287 12.6519 32.7394C14.1422 32.8502 15.6397 32.666 17.0588 32.1975C19.3345 31.4495 21.3161 30.0021 22.7208 28.0616C24.1256 26.1212 24.8819 23.7868 24.8819 21.3912C24.8819 18.9957 24.1256 16.6613 22.7208 14.7209C21.3161 12.7804 19.3345 11.333 17.0588 10.585L26.5 3.5V0.25ZM18.2775 28.6875L13.5 25.8925L8.7225 28.6875L9.99 23.2762L5.78125 19.6362L11.3225 19.165L13.5 14.0625L15.6775 19.165L21.2188 19.6362L17.01 23.2762L18.2775 28.6875Z" fill="#2C50ED"/>
</svg>
