<svg width="33" height="33" viewBox="0 0 33 33" fill="none" xmlns="http://www.w3.org/2000/svg">
<g clip-path="url(#clip0_405_11674)">
<path d="M17.0116 0.216498C16.9473 0.148109 16.8696 0.0936187 16.7834 0.0563847C16.6973 0.0191506 16.6043 -3.84206e-05 16.5105 5.77537e-08C16.3088 5.77537e-08 16.1279 0.0870118 16.0017 0.224813L9.37891 5.86691L9.78625 6.34509L16.5112 0.615656L23.2929 6.34573L23.6983 5.8662L17.0116 0.216498Z" fill="#E0E0E0"/>
<path d="M27.9898 28.0427C27.7922 27.8706 27.7909 27.5644 27.9855 27.3889C28.5518 26.8784 28.9079 26.1395 28.9079 25.3171C28.9079 24.4862 28.5443 23.7406 27.9678 23.2297C27.7716 23.0558 27.7716 22.7497 27.9678 22.5759C28.5443 22.0649 28.9079 21.3194 28.9079 20.4884C28.9079 19.6575 28.5443 18.9119 27.9678 18.401C27.7716 18.2271 27.7716 17.921 27.9678 17.7472C28.5443 17.2362 28.9079 16.4907 28.9079 15.6597C28.9079 14.8288 28.5443 14.0832 27.9678 13.5723C27.7716 13.3984 27.7716 13.0923 27.9678 12.9185C28.5443 12.4075 28.9079 11.662 28.9079 10.831C28.9079 10.0171 28.5592 9.28479 28.0032 8.77484C27.81 8.59772 27.8127 8.29157 28.0118 8.12109C28.6089 7.60959 28.9875 6.85027 28.9875 6.00232C28.9875 5.22186 28.6666 4.51662 28.1501 4.01027C27.6437 3.49368 26.9385 3.17283 26.158 3.17283C25.3711 3.17283 24.6606 3.49897 24.1536 4.02316C24.1005 4.0783 24.0368 4.12216 23.9664 4.15212C23.8959 4.18208 23.8202 4.19752 23.7436 4.19752C23.6671 4.19752 23.5913 4.18208 23.5209 4.15212C23.4505 4.12216 23.3868 4.0783 23.3337 4.02316C22.8267 3.4989 22.1162 3.17283 21.3293 3.17283C20.5423 3.17283 19.8318 3.49897 19.3248 4.02323C19.2717 4.07837 19.2081 4.12223 19.1376 4.15219C19.0672 4.18215 18.9914 4.19759 18.9149 4.19759C18.8383 4.19759 18.7626 4.18215 18.6921 4.15219C18.6217 4.12223 18.558 4.07837 18.5049 4.02323C17.9981 3.49897 17.2876 3.1729 16.5006 3.1729C15.6697 3.1729 14.9241 3.53648 14.4132 4.11295C14.2394 4.30914 13.9332 4.30914 13.7594 4.11295C13.2485 3.53648 12.5029 3.1729 11.6719 3.1729C10.8447 3.1729 10.102 3.53319 9.59132 4.10515C9.42387 4.29271 9.13499 4.30482 8.95562 4.12861L8.83528 4.0104C8.30071 3.465 7.54441 3.13771 6.71187 3.17593C5.28398 3.24148 4.12215 4.40331 4.05653 5.83127C4.01831 6.66374 4.34561 7.4201 4.89101 7.95467C4.92596 7.99034 4.96185 8.02507 4.99864 8.05883C5.19155 8.23588 5.18852 8.54184 4.98962 8.71219C4.39233 9.22369 4.01367 9.98308 4.01367 10.8312C4.01367 11.6621 4.37719 12.4077 4.95372 12.9186C5.14992 13.0924 5.14992 13.3986 4.95372 13.5724C4.37725 14.0833 4.01367 14.8289 4.01367 15.6599C4.01367 16.4908 4.37719 17.2364 4.95372 17.7473C5.14992 17.9211 5.14992 18.2273 4.95372 18.4011C4.37725 18.912 4.01367 19.6576 4.01367 20.4886C4.01367 21.3195 4.37719 22.0651 4.95372 22.576C5.14992 22.7498 5.14992 23.056 4.95372 23.2298C4.37725 23.7407 4.01367 24.4863 4.01367 25.3173C4.01367 26.1482 4.37719 26.8938 4.95372 27.4047C5.14992 27.5785 5.14992 27.8847 4.95372 28.0585C4.37725 28.5694 4.01367 29.315 4.01367 30.146C4.01367 31.6866 5.26264 32.9356 6.80333 32.9356C6.81003 32.9356 6.81661 32.9352 6.82325 32.9351C6.82989 32.9352 6.83646 32.9356 6.84316 32.9356C7.67409 32.9356 8.41969 32.572 8.93061 31.9956C9.10444 31.7994 9.41059 31.7994 9.58442 31.9956C10.0953 32.572 10.8409 32.9356 11.6719 32.9356C12.5028 32.9356 13.2484 32.572 13.7593 31.9956C13.9331 31.7994 14.2393 31.7994 14.4131 31.9956C14.924 32.572 15.6696 32.9356 16.5006 32.9356C17.3315 32.9356 18.0771 32.572 18.588 31.9956C18.7618 31.7994 19.068 31.7994 19.2418 31.9956C19.7527 32.572 20.4983 32.9356 21.3293 32.9356C22.151 32.9356 22.8897 32.5802 23.4001 32.0146C23.5731 31.8231 23.8743 31.8231 24.0473 32.0146C24.5577 32.5801 25.2963 32.9356 26.1181 32.9356C26.1248 32.9356 26.1314 32.9352 26.138 32.9351C26.1447 32.9352 26.1513 32.9356 26.158 32.9356C27.6986 32.9356 28.9476 31.6866 28.9476 30.146C28.9477 29.3064 28.5766 28.554 27.9898 28.0427ZM21.3293 27.3561C20.2978 27.3561 19.3977 27.9164 18.915 28.7489C18.4323 27.9165 17.5322 27.3561 16.5006 27.3561C15.4691 27.3561 14.569 27.9164 14.0863 28.7489C13.6036 27.9165 12.7035 27.3561 11.6719 27.3561C10.6404 27.3561 9.74027 27.9164 9.25758 28.7489C9.00886 28.3202 8.65093 27.9652 8.22027 27.72C9.04179 27.2345 9.59312 26.3404 9.59312 25.3171C9.59312 24.2856 9.03283 23.3855 8.20035 22.9028C9.03277 22.4201 9.59312 21.52 9.59312 20.4884C9.59312 19.4569 9.03283 18.5568 8.20035 18.0741C9.03277 17.5914 9.59312 16.6913 9.59312 15.6597C9.59312 14.6281 9.03283 13.7281 8.20035 13.2454C9.03277 12.7627 9.59312 11.8626 9.59312 10.831C9.59312 9.81589 9.05081 8.92766 8.24019 8.43955C8.67473 8.19684 9.03677 7.84275 9.2891 7.41372C9.77894 8.21635 10.6628 8.75222 11.6719 8.75222C12.7034 8.75222 13.6036 8.19193 14.0863 7.35945C14.569 8.19186 15.4691 8.75222 16.5006 8.75222C17.5322 8.75222 18.4323 8.19193 18.915 7.35945C19.3977 8.19186 20.2978 8.75222 21.3293 8.75222C22.3608 8.75222 23.261 8.19193 23.7437 7.35945C23.8702 7.57772 24.0257 7.7779 24.2058 7.95455C24.3716 8.12385 24.5582 8.27144 24.7611 8.39379C23.9066 8.87062 23.3285 9.78308 23.3285 10.831C23.3285 11.8625 23.8888 12.7627 24.7212 13.2454C23.8888 13.7281 23.3285 14.6282 23.3285 15.6597C23.3285 16.6912 23.8888 17.5914 24.7212 18.0741C23.8888 18.5568 23.3285 19.4569 23.3285 20.4884C23.3285 21.5199 23.8888 22.4201 24.7212 22.9028C23.8888 23.3855 23.3285 24.2856 23.3285 25.3171C23.3285 26.3486 23.8888 27.2488 24.7212 27.7315C24.3109 27.9694 23.9677 28.3075 23.7238 28.7143C23.2364 27.9008 22.3466 27.3561 21.3293 27.3561Z" fill="#2C50ED"/>
</g>
<defs>
<clipPath id="clip0_405_11674">
<rect width="33" height="33" fill="white"/>
</clipPath>
</defs>
</svg>
